<svg width="995" height="362" viewBox="0 0 995 362" fill="none" xmlns="http://www.w3.org/2000/svg">
<path d="M610.654 149.458L610.678 149.601L611.181 149.502C672.077 137.559 715.506 108.48 750.568 79.2298C761.321 70.2593 771.304 61.257 780.756 52.7337C786.698 47.3758 792.43 42.2071 798.011 37.3545C812.496 24.7612 825.996 14.2683 839.667 7.94294C853.32 1.62555 867.132 -0.529967 882.263 3.54314C897.413 7.62097 913.936 17.9558 932.969 36.725C971.042 74.271 1019.02 145.425 1086.01 267.154L1086.02 267.174L1086.03 267.193C1161.64 378.833 1217.32 480.427 1260.32 573.194L1206.8 619.628C1179.79 569.051 1152.1 526.057 1124.87 483.789C1116.28 470.457 1107.74 457.197 1099.28 443.794C1049.62 365.118 961.083 293.303 874.625 248.915C831.393 226.72 788.656 211.369 751.533 205.453C714.428 199.54 682.833 203.038 661.99 218.674C650.649 227.184 641.216 241.048 634.079 259.08C626.939 277.116 622.083 299.353 619.916 324.655C615.581 375.258 621.998 438.166 642.468 504.34C683.367 636.552 780.385 781.85 959.952 868.12L903.707 937.343C870.702 925.147 859.618 922.645 817.343 913.103C814.485 912.457 811.483 911.78 808.323 911.065C680.669 875.634 486.004 797.544 319.589 699.619C236.379 650.655 160.252 596.743 103.099 540.74C45.9507 484.74 7.83112 426.704 0.501506 369.479C3.87975 292.653 35.416 242.141 82.8626 209.141C130.347 176.115 193.809 160.601 261.052 153.894C328.287 147.188 399.24 149.291 461.674 151.456C464.356 151.549 467.023 151.642 469.672 151.734C497.858 152.719 524.157 153.637 547.39 153.652C572.545 153.669 594.137 152.629 610.654 149.458Z" stroke="#F0ACB6" stroke-opacity="0.5"/>
</svg>
