<?xml version="1.0" encoding="utf-8"?>
<!-- Generator: Adobe Illustrator 27.2.0, SVG Export Plug-In . SVG Version: 6.00 Build 0)  -->
<svg version="1.1" id="Calque_1" xmlns="http://www.w3.org/2000/svg" xmlns:xlink="http://www.w3.org/1999/xlink" x="0px" y="0px"
	 width="1143px" height="530px" viewBox="0 0 1143 530" style="enable-background:new 0 0 1143 530;" xml:space="preserve">
<style type="text/css">
	.st0{fill:none;stroke:#F0ACB6;stroke-opacity:0.5;}
</style>
<path class="st0" d="M443.67,405.28l1.12,0.25c183.7,40.41,245.47,30.29,291.36,5.31c11.01-5.99,21.12-12.85,31.8-20.09
	c33.88-22.98,73.37-49.76,164.92-64.64c45.37-7.38,88.83-26.08,124.22-49.91c35.41-23.83,62.72-52.76,75.84-80.55
	c6.56-13.89,9.56-27.48,8.28-39.99c-1.28-12.5-6.83-23.96-17.45-33.63c-21.25-19.36-62.85-31.56-131.1-30.22 M443.67,405.28
	l0.04,0.06C246.79,362.42,61.37,443.58-68.22,528.04l17.3-122.13 M992.67,91.82c-72.58,1.43-131.56-14-184.2-32.55
	c-17.81-6.28-34.91-12.92-51.55-19.38c-7.94-3.08-15.77-6.13-23.53-9.07c-24.04-9.12-47.39-17.31-70.97-22.86
	C615.29-3.14,567.25-3.69,511.04,19.97c-56.23,23.67-120.68,71.58-200.6,157.48c-41.91,45.06-111.76,92.44-181.38,133.42
	C59.57,351.78-9.75,386.34-50.92,405.9"/>
</svg>
