<?xml version="1.0" encoding="utf-8"?>
<!-- Generator: Adobe Illustrator 27.3.0, SVG Export Plug-In . SVG Version: 6.00 Build 0)  -->
<svg version="1.1" id="Calque_1" xmlns="http://www.w3.org/2000/svg" xmlns:xlink="http://www.w3.org/1999/xlink" x="0px" y="0px"
	 width="828.28px" height="478.68px" viewBox="0 0 828.28 478.68" style="enable-background:new 0 0 828.28 478.68;"
	 xml:space="preserve">
<style type="text/css">
	.st0{fill:#FFFFFF;}
	.st1{fill:#F0ACB6;}
</style>
<g>
	<g>
		<g>
			<path class="st0" d="M47.74,208.2c9.01,9.01,19.41,15.87,31.19,20.58c11.78,4.71,24.05,7.14,36.81,7.28
				c12.75,0.14,25.16-2.01,37.22-6.45c12.05-4.43,22.87-11.43,32.44-21s16.6-20.42,21.11-32.54c4.5-12.13,6.68-24.57,6.55-37.32
				c-0.14-12.76-2.57-25.03-7.28-36.81c-4.71-11.79-11.57-22.18-20.58-31.19c-8.87-8.87-19.23-15.7-31.09-20.48
				c-11.85-4.78-24.15-7.25-36.91-7.38c-12.76-0.14-25.2,2.04-37.32,6.55c-12.13,4.5-22.98,11.54-32.54,21.11s-16.57,20.38-21,32.44
				c-4.44,12.06-6.59,24.47-6.45,37.22c0.13,12.76,2.6,25.06,7.38,36.91C32.04,188.96,38.86,199.33,47.74,208.2z M50.96,150.08
				c3.39-9.77,8.28-19.3,14.66-28.59c6.37-9.28,13.44-17.81,21.21-25.58c6.1-6.1,12.82-11.71,20.17-16.84
				c7.35-5.13,14.83-9.08,22.46-11.85c7.62-2.77,15.07-3.71,22.36-2.81c7.27,0.9,13.89,4.33,19.86,10.29
				c7.62,7.62,12.05,16.09,13.31,25.37c1.24,9.29,0.17,18.88-3.22,28.8c-3.4,9.91-8.32,19.54-14.77,28.9
				c-6.44,9.36-13.55,17.92-21.31,25.68c-6.1,6.1-12.83,11.71-20.17,16.85c-7.35,5.13-14.84,9.01-22.46,11.65
				c-7.62,2.63-15.04,3.46-22.25,2.5c-7.21-0.97-13.86-4.51-19.96-10.61c-7.63-7.63-12.03-16.04-13.2-25.27
				C46.45,169.35,47.57,159.85,50.96,150.08z"/>
			<path class="st0" d="M265.4,123.64c3.04-4.12,6.62-6.18,10.73-6.18c7.45,0,13.92,3.04,19.41,9.12c2.35,2.55,4.9,5.35,7.65,8.39
				c2.74,3.04,5.98,4.55,9.7,4.55c5.1,0,9.12-1.95,12.06-5.88c2.94-3.92,4.41-7.94,4.41-12.05c0-3.72-0.59-6.62-1.77-8.67
				c-1.17-2.06-2.45-3.78-3.82-5.15c-1.57-0.98-4.81-2.1-9.7-3.38c-4.9-1.28-11.37-1.91-19.41-1.91c-10,0-19.46,2.05-28.38,6.17
				c-8.92,4.11-16.91,9.61-23.97,16.46c-7.06,6.87-12.6,14.52-16.61,22.94c-4.02,8.44-6.03,17.06-6.03,25.88
				c0,12.55,2.79,23.28,8.38,32.2c5.59,8.92,12.99,15.78,22.2,20.58c9.21,4.8,19.12,7.21,29.7,7.21c9.21,0,17.4-1.77,24.56-5.3
				c7.15-3.53,13.08-7.55,17.79-12.05c4.7-4.51,7.94-8.03,9.7-10.59c0.59-0.98,0.88-2.74,0.88-5.29c0-0.98-0.34-2.06-1.03-3.23
				c-0.69-1.18-1.52-1.87-2.5-2.06c-3.14,3.14-7.16,6.32-12.06,9.56c-4.9,3.24-11.57,4.85-20,4.85c-6.08,0-12.3-1.56-18.67-4.7
				c-6.38-3.14-11.76-8.58-16.18-16.33c-4.41-7.74-6.62-18.28-6.62-31.61c0-5.88,0.83-11.91,2.5-18.08
				C260.01,132.91,262.36,127.76,265.4,123.64z"/>
			<path class="st0" d="M189.65,47.03c34.67,19.48,24.96,55.7,86.64,37.3c20.05-5.98,61.46-1.7,64.1-1.31
				c2.65,0.39,5.3,0.98,7.94,1.77c2.65,0.78,4.37,1.96,5.15,3.53c0.78,1.38,1.37,3.78,1.77,7.21v15.29h-12.65
				c-1.76,1.37-3.33,2.79-4.71,4.26c-1.37,1.46-2.84,3.28-4.41,5.43c0,0.59,0.04,1.28,0.14,2.06c0.1,0.79,0.54,1.37,1.32,1.77h20.29
				v69.4c0,10.59,1.86,18.97,5.59,25.15c3.72,6.17,8.48,10.54,14.26,13.08c5.78,2.55,11.62,3.83,17.5,3.83
				c5.1,0,9.8-1.13,14.12-3.38c4.31-2.25,7.94-4.66,10.88-7.21c2.94-2.54,4.8-4.31,5.59-5.29c0.39-0.39,0.83-1.18,1.32-2.35
				c0.48-1.18,0.74-2.15,0.74-2.94c0-0.78-0.2-1.62-0.59-2.51c-0.39-0.88-0.79-1.41-1.18-1.62c-0.39,0.39-2.2,1.62-5.44,3.68
				c-3.24,2.06-6.52,3.09-9.85,3.09c-5.29,0-9.21-1.71-11.76-5.15c-2.55-3.42-3.82-8.97-3.82-16.61v-71.16h27.94
				c1.57-0.98,3.04-2.5,4.41-4.56c1.37-2.06,2.06-3.77,2.06-5.15c0-0.78-0.15-1.62-0.44-2.5c-0.29-0.88-0.74-1.32-1.32-1.32h-32.05
				V97.72c0-0.98,0-3.42,0-7.35c0-3.92,0.09-7.44,0.29-10.58c0.19-2.16,0.63-5.15,1.32-8.97c0.68-3.82,1.22-6.32,1.62-7.5
				c0-0.39-0.54-1.28-1.62-2.65c-1.08-1.37-2.11-2.15-3.09-2.35c-3.53,1.77-8.34,3.73-14.41,5.89c0,0-63.21,18.81-101.01-16.28
				c-37.8-35.09-32.08-12.44-63.23-24.55C189.52,14.23,157,28.68,189.65,47.03z"/>
			<path class="st0" d="M432.41,203.73c5.64,9.84,13.54,17.61,23.71,23.35c10.16,5.74,21.91,8.64,35.24,8.71
				c12.74,0.06,24.13-2.92,34.16-8.95c10.03-6.02,18.01-14.13,23.94-24.29c5.93-10.16,8.93-21.22,8.99-33.18
				c0.06-12.15-2.73-23.05-8.37-32.69c-5.64-9.63-13.49-17.27-23.56-22.91c-10.07-5.64-21.77-8.49-35.1-8.56
				c-12.55-0.06-23.88,2.87-34.01,8.81c-10.13,5.93-18.21,13.87-24.23,23.84c-6.03,9.97-9.07,21.03-9.13,33.18
				C423.99,183.01,426.77,193.9,432.41,203.73z M465.76,149.35c0.52-5.58,1.53-10.83,3.02-15.72c1.5-4.9,3.77-8.85,6.83-11.88
				c3.05-3.02,7.23-4.52,12.52-4.5c5.29,0.03,9.79,1.86,13.5,5.51c3.7,3.64,6.77,8.41,9.19,14.3c2.42,5.89,4.2,12.23,5.34,19
				c1.14,6.77,1.7,13.39,1.67,19.86c-0.03,5.1-0.3,10.44-0.82,16.02c-0.52,5.58-1.57,10.78-3.16,15.57c-1.6,4.8-3.92,8.7-6.97,11.73
				c-3.06,3.03-7.23,4.52-12.52,4.5c-5.29-0.03-9.79-1.86-13.5-5.5c-3.71-3.64-6.72-8.37-9.05-14.16c-2.32-5.8-4.05-12.08-5.2-18.85
				c-1.14-6.77-1.7-13.29-1.67-19.57C464.97,160.37,465.24,154.93,465.76,149.35z"/>
			<path class="st0" d="M255.2,382.54c-2.84-0.29-5.5-0.83-7.94-1.62c-2.46-0.78-3.98-1.77-4.57-2.94
				c-0.98-2.55-1.57-5.78-1.75-9.71c-0.2-3.92-0.3-8.42-0.3-13.53c0-0.59,0-1.22,0-1.91c0-0.68,0-1.32,0-1.91V332.4
				c0-15.09-0.98-27.68-2.94-37.79c-1.95-10.09-5.73-17.65-11.31-22.64s-13.87-7.5-24.86-7.5c-4.31,0-9.36,1.18-15.15,3.53
				c-5.77,2.35-11.46,5.44-17.04,9.26c-5.59,3.83-10.54,7.8-14.85,11.91c-3.34-9.21-7.79-15.63-13.38-19.26
				c-5.59-3.63-12.99-5.44-22.2-5.44c-4.31,0-9.07,1.18-14.26,3.53c-5.19,2.35-10.1,5.2-14.7,8.53c-4.61,3.33-8.29,6.57-11.03,9.7
				c-0.98,0.98-1.67,1.47-2.06,1.47c-0.2-0.19-0.29-0.78-0.29-1.76c0-0.19,0.15-1.47,0.44-3.83c0.29-2.35,0.74-4.85,1.32-7.5
				c0.59-2.65,0.98-4.36,1.18-5.15c0-0.39-0.59-1.28-1.76-2.65c-1.18-1.37-2.26-2.15-3.24-2.35c-3.53,1.77-8.34,3.73-14.41,5.89
				c-6.08,2.15-12.69,4.11-19.85,5.88c-7.16,1.77-14.37,2.94-21.61,3.52c-0.39,0-0.69,0.69-0.88,2.06c-0.2,1.37-0.2,2.79,0,4.26
				c0.19,1.47,0.39,2.3,0.59,2.5c0.78,0,2.45,0.2,5,0.59c2.55,0.39,5.15,0.98,7.79,1.77c2.65,0.78,4.36,1.96,5.15,3.53
				c0.78,1.38,1.37,3.78,1.76,7.21c0.39,3.43,0.64,6.76,0.74,10c0.1,3.23,0.15,5.34,0.15,6.32v32.94c0,6.07-0.1,11.37-0.29,15.88
				c-0.2,4.51-0.88,8.23-2.06,11.17c-0.39,1.18-1.87,2.16-4.41,2.94c-2.55,0.78-5.15,1.32-7.79,1.62c-2.65,0.29-4.66,0.54-6.03,0.73
				c-0.79,0.98-1.13,2.75-1.03,5.3c0.1,2.55,0.44,4.31,1.03,5.29c5.68-0.59,12.1-1.08,19.26-1.47c7.15-0.39,13.77-0.59,19.85-0.59
				c6.07,0,12.45,0.2,19.12,0.59c6.66,0.39,12.74,0.88,18.23,1.47c0.59-0.98,0.93-2.74,1.03-5.29c0.09-2.55-0.25-4.31-1.03-5.3
				c-1.18-0.19-2.99-0.44-5.44-0.73c-2.45-0.29-4.7-0.83-6.76-1.62c-2.06-0.78-3.38-1.77-3.97-2.94c-1.17-2.94-1.86-6.86-2.06-11.76
				c-0.2-4.9-0.29-10-0.29-15.29v-47.05c0-1.96,1.32-4.16,3.97-6.62c2.65-2.45,5.93-4.6,9.85-6.47c3.92-1.86,7.74-2.79,11.47-2.79
				c5.1,0,9.01,1.91,11.76,5.74c2.74,3.82,4.65,8.82,5.73,15c1.08,6.17,1.62,12.69,1.62,19.56v22.64c0,0.59,0,1.23,0,1.91
				c0,0.69,0,1.32,0,1.91c0,5.1-0.1,9.61-0.29,13.53c-0.2,3.93-0.79,7.16-1.77,9.71c-0.78,1.96-3.09,3.29-6.91,3.97
				c-3.82,0.69-6.72,1.13-8.67,1.32c-0.79,0.98-1.13,2.75-1.03,5.3c0.1,2.55,0.44,4.31,1.03,5.29c5.68-0.59,11.66-1.08,17.94-1.47
				c6.27-0.39,12.45-0.59,18.53-0.59c6.07,0,12.69,0.2,19.84,0.59c7.17,0.39,13.48,0.88,18.97,1.47c0.59-0.98,0.93-2.74,1.03-5.29
				c0.1-2.55-0.24-4.31-1.03-5.3c-1.18-0.19-3.13-0.44-5.87-0.73c-2.76-0.29-5.3-0.83-7.65-1.62c-2.35-0.78-3.82-1.77-4.41-2.94
				c-1.18-2.94-1.87-6.66-2.05-11.17c-0.2-4.51-0.3-9.81-0.3-15.88V332.4c0-5.1-0.1-9.89-0.29-14.41c-0.2-4.51-0.5-8.72-0.89-12.64
				v-1.77c0-1.96,1.48-4.16,4.41-6.61c2.94-2.46,6.52-4.56,10.74-6.33c4.21-1.77,8.18-2.65,11.9-2.65c5.1,0,9.07,1.91,11.92,5.74
				c2.84,3.82,4.8,8.82,5.87,15c1.08,6.17,1.62,12.69,1.62,19.56v22.64c0,6.07-0.1,11.37-0.29,15.88c-0.2,4.51-0.89,8.23-2.07,11.17
				c-0.78,1.96-2.99,3.29-6.62,3.97c-3.62,0.69-6.42,1.13-8.37,1.32c-0.79,0.98-1.13,2.75-1.03,5.3c0.1,2.55,0.45,4.31,1.03,5.29
				c5.69-0.59,11.56-1.08,17.65-1.47c6.07-0.39,12.15-0.59,18.22-0.59c6.07,0,12.79,0.2,20.15,0.59c7.35,0.39,13.77,0.88,19.27,1.47
				c0.59-0.98,0.92-2.74,1.02-5.29c0.1-2.55-0.24-4.31-1.02-5.3C260.06,383.08,258.05,382.83,255.2,382.54z"/>
			<path class="st0" d="M404.44,385.83c1.18-1.77,0.93-4.44,0.41-6.76c-0.43-1.91-0.7-3.15-1.29-3.73c-0.2,0-0.39,0-0.59,0
				c-1.57,0-3.73-0.09-6.47-0.29c-2.75-0.19-4.7-0.98-5.88-2.35c-1.38-1.57-2.16-3.24-2.35-5c-0.2-1.76-0.29-3.72-0.29-5.88v-57.93
				c0-0.98,0-3.42,0-7.35c0-3.92,0.09-7.45,0.29-10.58c0.19-2.16,0.63-5.15,1.32-8.97c0.69-3.82,1.23-6.32,1.62-7.5
				c0-0.39-0.59-1.28-1.77-2.65c-1.18-1.37-2.25-2.15-3.24-2.35c-3.53,1.77-8.34,3.73-14.41,5.89c-6.07,2.15-12.69,4.11-19.85,5.88
				c-7.16,1.77-14.36,2.94-21.61,3.52c-0.39,0-0.69,0.69-0.88,2.06c-0.2,1.37-0.2,2.79,0,4.26c0.19,1.47,0.39,2.3,0.59,2.5
				c0.78,0,2.45,0.2,5,0.59c2.55,0.39,5.15,0.98,7.8,1.77c2.64,0.78,4.36,1.96,5.14,3.53c0.78,1.38,1.37,3.78,1.77,7.21
				c0.39,3.43,0.64,6.76,0.74,10c0.09,3.23,0.14,5.34,0.14,6.32v47.94c0,2.15-2.06,4.46-6.17,6.91c-4.11,2.46-8.13,3.68-12.05,3.68
				c-9.02,0-15.05-3.97-18.08-11.91c-3.04-7.94-4.56-19.56-4.56-34.84v-25.88c0-0.98,0-3.42,0-7.35c0-3.92,0.09-7.45,0.29-10.58
				c0.19-2.16,0.63-5.15,1.32-8.97c0.68-3.82,1.22-6.32,1.62-7.5c0-0.39-0.54-1.28-1.62-2.65c-1.08-1.37-2.11-2.15-3.09-2.35
				c-3.53,1.77-8.34,3.73-14.41,5.89c-6.08,2.15-12.75,4.11-19.99,5.88c-7.26,1.77-14.52,2.94-21.76,3.52
				c-0.4,0-0.69,0.69-0.88,2.06c-0.2,1.37-0.2,2.79,0,4.26c0.19,1.47,0.39,2.3,0.59,2.5c0.78,0,2.5,0.2,5.14,0.59
				c2.65,0.39,5.3,0.98,7.94,1.77c2.65,0.78,4.37,1.96,5.15,3.53c0.78,1.38,1.37,3.78,1.77,7.21c0.39,3.43,0.63,6.76,0.73,10
				c0.1,3.23,0.15,5.34,0.15,6.32v24.7c0,9.02,1.13,17.45,3.38,25.29c2.25,7.85,6.07,14.17,11.47,18.97
				c5.39,4.81,12.69,7.21,21.91,7.21c6.66,0,12.74-0.79,18.23-2.35c5.49-1.57,10.14-3.38,13.97-5.44c3.82-2.05,6.51-3.58,8.08-4.56
				c0.39-0.39,0.64-0.34,0.74,0.15c0.09,0.49,0.14,0.93,0.14,1.32v4.42c0,4.7,0.88,7.06,2.65,7.06c0.98,0,3.28-0.45,6.91-1.33
				c3.63-0.88,7.94-1.91,12.94-3.09c5-1.18,10.09-2.3,15.29-3.38C393.61,385.88,399.56,385.28,404.44,385.83z"/>
			<path class="st0" d="M458.25,383.56c-3.73,0-7.75-0.88-12.06-2.64c-4.31-1.77-8.23-4.9-11.76-9.41
				c-3.53-4.51-5.98-10.88-7.35-19.12c-0.39-0.98-1.28-1.66-2.65-2.05c-1.37-0.39-2.55-0.59-3.53-0.59c-0.79,0-1.72,0.05-2.79,0.14
				c-1.08,0.1-1.62,0.64-1.62,1.62c0,0.78,0.05,2.84,0.15,6.17c0.09,3.33,0.29,7.11,0.59,11.32c0.29,4.21,0.59,8.18,0.88,11.91
				c0.29,3.73,0.53,6.37,0.73,7.94c3.53,0.78,8.43,2.01,14.7,3.68c6.27,1.66,12.54,2.5,18.82,2.5c10,0,19.31-1.33,27.94-3.97
				c8.62-2.65,15.53-6.86,20.73-12.65c5.19-5.78,7.8-13.48,7.8-23.08c0-8.23-1.52-14.7-4.56-19.41c-3.04-4.71-6.91-8.53-11.62-11.47
				c-4.7-2.94-9.61-5.59-14.7-7.94c-4.12-2.15-8.49-4.21-13.09-6.17c-4.61-1.95-8.48-4.46-11.62-7.5c-3.14-3.04-4.7-7.01-4.7-11.91
				c0-5.1,1.56-8.92,4.7-11.47c3.14-2.54,7.06-3.82,11.77-3.82c6.66,0,12.05,1.52,16.17,4.56c4.12,3.04,7.25,6.76,9.41,11.17
				c2.15,4.42,3.73,8.78,4.71,13.09c0.98,0.59,1.86,1.13,2.64,1.62c0.78,0.5,1.77,0.74,2.94,0.74c0.98,0,2.1-0.19,3.38-0.59
				c1.27-0.39,1.91-0.88,1.91-1.47c0-1.77-0.34-4.8-1.03-9.12c-0.69-4.31-1.52-8.97-2.5-13.96c-0.98-5-1.87-9.07-2.65-12.21
				c-4.7-0.98-9.51-2.15-14.41-3.53c-4.9-1.36-10.78-2.05-17.65-2.05c-5.69,0-11.62,0.73-17.79,2.2
				c-6.17,1.47-11.96,3.78-17.35,6.91c-5.4,3.14-9.81,7.21-13.24,12.2c-3.43,5-5.14,11.13-5.14,18.38c0,9.61,2.99,17.35,8.97,23.23
				c5.97,5.88,13.18,11.08,21.61,15.59c4.51,2.36,9.02,4.56,13.53,6.61c4.5,2.06,8.28,4.52,11.31,7.35
				c3.04,2.85,4.56,6.72,4.56,11.62c0,3.93-1.42,7.5-4.26,10.73C467.31,381.95,463.34,383.56,458.25,383.56z"/>
			<path class="st0" d="M729.53,349.3c-31.44-17.32-67.58-17.69-99.83,7.8c-6,5.23-7.17,6.32-12.06,9.56
				c-4.9,3.24-11.57,4.85-20,4.85c-3.14,0-7.01-0.63-11.61-1.91c-4.61-1.28-9.07-3.57-13.38-6.91c-4.31-3.33-7.94-8.18-10.88-14.55
				c-2.94-6.37-4.41-14.56-4.41-24.56c7.06-0.19,14.7-0.44,22.94-0.73c8.23-0.29,16.37-0.68,24.41-1.18
				c8.04-0.49,15.29-1.03,21.76-1.62c2.15-0.19,3.97-1.47,5.43-3.83c1.48-2.35,2.21-5.09,2.21-8.23c0-4.12-0.89-8.68-2.64-13.68
				c-1.77-5-4.57-9.75-8.39-14.27c-3.82-4.5-8.97-8.23-15.44-11.17c-6.47-2.94-14.41-4.42-23.82-4.42c-8.23,0-16.17,1.97-23.82,5.89
				c-7.65,3.92-14.46,9.26-20.44,16.02c-5.98,6.76-10.73,14.41-14.26,22.94c-3.53,8.53-5.29,17.3-5.29,26.32
				c0,12.55,2.79,23.28,8.38,32.2c5.59,8.92,12.99,15.78,22.2,20.58c9.21,4.8,19.12,7.21,29.7,7.21c9.21,0,17.4-1.77,24.55-5.3
				c0.94-0.46,1.8-0.96,2.7-1.44l0,0c58.76-43.73,121.99-5.59,122.23,13.29c0.2,16.03-39.37,36.02-68.13,34.06
				c-26.1-1.78-51.01-0.89-103.2-26.57c-42.59-20.95-63.32-1.57-107.08,4.83c-24.8,3.63-45.71-21.88-63.15,0.87
				c-1.67,2.17-2.9,5.24-3.99,8.87c-4.73,15.77,22.62,53.94,66.14,27.49c18.64-11.33,11.26-11.01,34.77-23.82
				c62.28-33.94,83.52,18.8,199.83,22.98c110.38,3.97,41.99-13.92,58.27-48.71C752.1,383.26,749.5,360.31,729.53,349.3z
				 M558.83,302.55c0.78-4.02,2.1-7.99,3.97-11.91c1.86-3.92,4.26-7.25,7.2-10c2.94-2.74,6.57-4.11,10.88-4.11
				c4.31,0,7.74,1.47,10.29,4.41c2.55,2.94,4.41,6.57,5.59,10.88c1.17,4.32,1.76,8.72,1.76,13.23c0,0.78-0.2,1.72-0.59,2.79
				c-0.39,1.08-1.47,1.72-3.23,1.91c-1.76,0.2-4.51,0.45-8.23,0.74c-3.73,0.29-7.7,0.59-11.91,0.88c-4.22,0.29-7.94,0.49-11.17,0.59
				c-3.23,0.1-5.15,0.14-5.74,0.14C557.65,309.75,558.04,306.57,558.83,302.55z"/>
		</g>
		<path class="st1" d="M764.62,204.78l-84.17-31.91l70.52-55.93l-82.08,36.95l10.32-89.42l-31.91,84.17L591.37,78.1l36.95,82.08
			l-59.64-6.88c0.37,2.61,0.62,5.32,0.72,8.13l53.66,20.35l-70.52,55.93l82.08-36.95l-7.76,67.27c1.97,2.33,1.94,1.51,4.01,4.82
			l25.34-66.84l55.93,70.52l-36.95-82.08L764.62,204.78z"/>
	</g>
	<g>
		<path class="st0" d="M540.4,65.46l2.04-2.01l10.94,11.12l3.36-3.3l1.82,1.85l-5.4,5.31L540.4,65.46z"/>
		<path class="st0" d="M570.28,63.37l-2.25,1.8l-2.45-2.27l-2.74,2.19l1.68,2.89l-2.05,1.64l-9.09-16.03l3.27-2.61L570.28,63.37z
			 M561.57,62.94l2.15-1.72l-6.82-6.33L561.57,62.94z"/>
		<path class="st0" d="M586.83,45.17l1.16,2.12c1.4,2.55,0.93,4.71-1.54,6.06c-2.46,1.35-4.54,0.59-5.94-1.96l-4.55-8.3
			c-1.4-2.55-0.92-4.71,1.54-6.06c2.46-1.35,4.54-0.59,5.94,1.96l0.85,1.55l-2.37,1.3l-0.94-1.71c-0.63-1.14-1.37-1.3-2.16-0.86
			s-1.06,1.15-0.44,2.29l4.73,8.62c0.62,1.14,1.35,1.27,2.15,0.84c0.8-0.44,1.07-1.12,0.45-2.26l-1.25-2.28L586.83,45.17z"/>
		<path class="st0" d="M601.43,46.03c-0.32-0.37-0.53-0.6-1.1-1.96l-1.1-2.64c-0.65-1.56-1.42-1.92-2.62-1.42l-0.91,0.38l2.85,6.84
			l-2.64,1.1l-7-16.8l3.98-1.66c2.74-1.14,4.44-0.36,5.52,2.24l0.55,1.32c0.72,1.73,0.64,3.09-0.31,4.13c1.55,0,2.51,1.09,3.24,2.85
			l1.08,2.59c0.34,0.82,0.61,1.41,1.14,1.92L601.43,46.03z M592.56,32.83l2.15,5.16l1.03-0.43c0.98-0.41,1.4-1.09,0.84-2.44
			l-0.69-1.66c-0.5-1.2-1.13-1.56-2.06-1.17L592.56,32.83z"/>
		<path class="st0" d="M609.82,31.94l3.76-1.12l0.74,2.49l-3.76,1.12l1.51,5.11l4.74-1.4l0.74,2.49l-7.48,2.22L604.9,25.4l7.48-2.22
			l0.74,2.49l-4.74,1.4L609.82,31.94z M610.47,19.74l-1.72,3.52l-1.84,0.55l0.88-3.27L610.47,19.74z"/>
		<path class="st0" d="M632.99,37.46l-2.84,0.52l-1.08-3.16l-3.45,0.63l0.11,3.34l-2.58,0.47l-0.4-18.42l4.12-0.75L632.99,37.46z
			 M625.54,32.95l2.71-0.49l-3.01-8.81L625.54,32.95z"/>
		<path class="st0" d="M636.8,18.67l8.81-0.67l0.2,2.59l-2.98,0.23l1.18,15.56l-2.85,0.22l-1.18-15.55l-2.98,0.23L636.8,18.67z"/>
		<path class="st0" d="M653.38,17.86l2.86,0.05l-0.3,18.2l-2.86-0.05L653.38,17.86z"/>
		<path class="st0" d="M667.46,33.42l3.62-14.56l2.61,0.26l-4.57,17.84l-4.24-0.42l-1.02-18.39l2.87,0.28L667.46,33.42z"/>
		<path class="st0" d="M681.34,20.37l2.81,0.53l-3.39,17.88l-2.81-0.53L681.34,20.37z"/>
		<path class="st0" d="M691.61,22.52l8.51,2.39l-0.7,2.5l-2.88-0.81l-4.21,15.02l-2.75-0.77l4.21-15.02l-2.88-0.81L691.61,22.52z"/>
		<path class="st0" d="M707.41,35.63l3.65,1.44l-0.95,2.42l-3.65-1.44L704.5,43l4.6,1.81l-0.95,2.42l-7.25-2.86l6.68-16.93
			l7.25,2.86l-0.95,2.42l-4.6-1.81L707.41,35.63z M715.43,26.41l-3.53,1.71l-1.79-0.71l2.7-2.04L715.43,26.41z"/>
		<path class="st0" d="M734.81,40.35c2.38,1.44,2.74,3.6,1.24,6.1l-0.3,0.49l-2.31-1.4l0.39-0.65c0.67-1.11,0.48-1.8-0.29-2.28
			c-0.78-0.47-1.48-0.32-2.15,0.79c-1.94,3.2,2.48,6.7-0.21,11.15c-1.51,2.49-3.61,3.16-6.02,1.71c-2.4-1.45-2.79-3.63-1.28-6.12
			l0.58-0.96l2.31,1.4l-0.67,1.11c-0.67,1.11-0.43,1.81,0.35,2.28c0.78,0.47,1.51,0.37,2.18-0.75c1.94-3.2-2.48-6.7,0.21-11.15
			C730.34,39.6,732.43,38.91,734.81,40.35z"/>
		<path class="st0" d="M742.36,50.74c1.76-2.32,3.99-2.72,6.22-1.02c2.24,1.7,2.45,3.95,0.69,6.27l-5.72,7.54
			c-1.76,2.32-3.99,2.72-6.22,1.02c-2.24-1.7-2.45-3.95-0.69-6.27L742.36,50.74z M738.81,60.15c-0.79,1.04-0.63,1.77,0.1,2.32
			c0.72,0.55,1.48,0.5,2.26-0.53l5.94-7.83c0.79-1.04,0.63-1.77-0.1-2.32c-0.72-0.55-1.48-0.5-2.26,0.53L738.81,60.15z"/>
		<path class="st0" d="M760.4,59.89l-9.64,10.21c-0.89,0.95-0.8,1.68-0.14,2.3c0.66,0.62,1.4,0.68,2.29-0.27l9.64-10.21l1.97,1.86
			L755,73.86c-2,2.12-4.2,2.33-6.24,0.4c-2.04-1.93-1.96-4.14,0.04-6.25l9.51-10.08L760.4,59.89z"/>
		<path class="st0" d="M773.11,72.83c1.81,2.11,1.48,4.28-0.73,6.18l-0.43,0.37l-1.76-2.05l0.57-0.49c0.99-0.85,1.02-1.56,0.43-2.25
			c-0.59-0.69-1.31-0.76-2.29,0.08c-2.84,2.44,0.26,7.14-3.69,10.52c-2.21,1.9-4.42,1.87-6.25-0.26c-1.83-2.13-1.51-4.32,0.7-6.22
			l0.85-0.73l1.76,2.05l-0.99,0.85c-0.99,0.85-0.97,1.58-0.38,2.28c0.59,0.69,1.32,0.82,2.31-0.02c2.84-2.44-0.26-7.14,3.69-10.52
			C769.11,70.71,771.3,70.72,773.11,72.83z"/>
		<path class="st0" d="M785.99,90.39l4.57,7.57l-2.23,1.34l-1.54-2.56l-13.36,8.06l-1.48-2.45l13.36-8.06l-1.54-2.56L785.99,90.39z"
			/>
		<path class="st0" d="M790.2,106.55c2.64-1.24,4.79-0.55,5.99,1.99s0.34,4.64-2.3,5.87l-8.57,4.02c-2.64,1.24-4.79,0.55-5.99-1.99
			s-0.34-4.64,2.3-5.87L790.2,106.55z M782.67,113.23c-1.18,0.55-1.38,1.28-1,2.1c0.39,0.82,1.08,1.13,2.25,0.58l8.9-4.17
			c1.18-0.55,1.38-1.28,1-2.1c-0.39-0.82-1.08-1.13-2.25-0.58L782.67,113.23z"/>
		<path class="st0" d="M801.91,123.09l-13.28,4.54c-1.23,0.42-1.49,1.11-1.19,1.97c0.29,0.86,0.92,1.25,2.15,0.83l13.28-4.54
			l0.87,2.56l-13.11,4.48c-2.75,0.94-4.8,0.1-5.71-2.55c-0.91-2.66,0.2-4.57,2.95-5.51l13.11-4.48L801.91,123.09z"/>
		<path class="st0" d="M805.88,135.92l1.97,8.62l-2.53,0.58l-0.67-2.91l-15.21,3.47l-0.64-2.79l15.21-3.47l-0.67-2.91L805.88,135.92
			z"/>
		<path class="st0" d="M801.91,156.06l0.48,3.9l-2.58,0.32l-0.48-3.9l-5.29,0.65l0.6,4.9l-2.58,0.32l-0.95-7.74l18.06-2.22
			l0.95,7.74l-2.58,0.32l-0.6-4.9L801.91,156.06z"/>
		<path class="st0" d="M811,172.25c0.06,2.78-1.58,4.25-4.49,4.3l-0.57,0.01l-0.05-2.7l0.75-0.02c1.3-0.03,1.78-0.56,1.76-1.47
			c-0.02-0.91-0.52-1.42-1.82-1.39c-3.74,0.07-4.33,5.68-9.54,5.78c-2.91,0.06-4.6-1.36-4.66-4.17c-0.06-2.81,1.58-4.3,4.49-4.36
			l1.12-0.02l0.05,2.7l-1.3,0.03c-1.3,0.03-1.76,0.61-1.74,1.52c0.02,0.91,0.5,1.47,1.8,1.45c3.74-0.07,4.33-5.68,9.53-5.78
			C809.25,168.07,810.94,169.46,811,172.25z"/>
		<path class="st0" d="M809.33,198.64c-0.41,2.75-2.26,3.92-5.14,3.5l-0.57-0.08l0.39-2.68l0.75,0.11c1.29,0.19,1.85-0.25,1.98-1.15
			s-0.28-1.49-1.57-1.68c-3.7-0.55-5.22,4.88-10.36,4.12c-2.88-0.43-4.31-2.11-3.9-4.89c0.41-2.78,2.27-3.98,5.15-3.55l1.11,0.16
			l-0.4,2.68l-1.29-0.19c-1.29-0.19-1.83,0.31-1.97,1.21s0.25,1.53,1.53,1.72c3.7,0.55,5.22-4.88,10.36-4.12
			C808.3,194.23,809.74,195.89,809.33,198.64z"/>
		<path class="st0" d="M798.71,211.79l-0.97,3.8l-2.52-0.64l0.97-3.8l-5.16-1.32l-1.22,4.79l-2.52-0.64l1.93-7.56l17.63,4.51
			l-1.93,7.56l-2.52-0.64l1.22-4.79L798.71,211.79z"/>
		<path class="st0" d="M801.26,230.17c-0.96,2.61-3.02,3.37-5.75,2.36l-0.54-0.2l0.94-2.54l0.71,0.26c1.22,0.45,1.86,0.13,2.18-0.72
			s0.03-1.51-1.19-1.96c-3.51-1.3-6.11,3.7-10.99,1.9c-2.73-1.01-3.79-2.95-2.81-5.59c0.97-2.63,3.04-3.42,5.77-2.41l1.05,0.39
			l-0.94,2.54l-1.22-0.45c-1.22-0.45-1.86-0.08-2.17,0.78s-0.08,1.55,1.14,2c3.51,1.3,6.11-3.7,10.99-1.9
			C801.16,225.65,802.23,227.56,801.26,230.17z"/>
		<path class="st0" d="M783.32,249.13l-1.83,3.2l-2.25-1.29l1.83-3.2l-6.52-3.74l1.42-2.48l15.79,9.05l-3.76,6.56l-2.25-1.29
			l2.34-4.08L783.32,249.13z"/>
		<path class="st0" d="M780.25,261.23c2.36,1.7,2.82,3.92,1.18,6.2s-3.89,2.55-6.25,0.85l-7.68-5.53c-2.36-1.7-2.82-3.92-1.18-6.2
			s3.89-2.55,6.25-0.85L780.25,261.23z M770.75,257.92c-1.05-0.76-1.79-0.58-2.32,0.16s-0.46,1.49,0.59,2.25l7.98,5.74
			c1.05,0.76,1.79,0.58,2.32-0.16s0.46-1.49-0.59-2.25L770.75,257.92z"/>
		<path class="st0" d="M755.83,269.78c0.45,0.2,0.73,0.31,1.84,1.3l2.13,1.91c1.26,1.13,2.1,1.12,2.97,0.15l0.66-0.73l-5.51-4.95
			l1.91-2.13l13.54,12.16l-2.88,3.21c-1.98,2.21-3.86,2.23-5.95,0.36l-1.06-0.96c-1.39-1.25-1.9-2.51-1.5-3.86
			c-1.4,0.66-2.74,0.09-4.15-1.18l-2.09-1.88c-0.66-0.59-1.16-1-1.85-1.24L755.83,269.78z M769.52,277.88l-4.16-3.73l-0.75,0.83
			c-0.71,0.79-0.8,1.59,0.29,2.56l1.33,1.2c0.97,0.87,1.69,0.92,2.37,0.17L769.52,277.88z"/>
		<path class="st0" d="M748.42,284.34l7.04,11.01l-2.99,2.62l-11.98-13.69l2.04-1.78l8.59,9.82l-7.11-11.12l2.03-1.78l10.08,8.28
			l-8.47-9.68l1.88-1.64l11.98,13.69l-2.99,2.62L748.42,284.34z"/>
		<path class="st0" d="M738.67,298.61l-3.24,2.22l-1.47-2.14l3.24-2.22l-3.02-4.39l-4.07,2.79l-1.47-2.14l6.43-4.41l10.3,15.01
			l-6.43,4.41l-1.47-2.14l4.07-2.79L738.67,298.61z"/>
		<path class="st0" d="M728.47,314.13c-2.44,1.33-4.49,0.55-5.88-2.01l-0.27-0.5l2.38-1.29l0.36,0.66c0.62,1.14,1.31,1.33,2.11,0.89
			c0.8-0.43,1.02-1.12,0.4-2.26c-1.79-3.29-7.03-1.24-9.51-5.81c-1.39-2.56-0.9-4.71,1.56-6.05c2.47-1.34,4.54-0.57,5.93,1.99
			l0.53,0.98l-2.38,1.29l-0.62-1.14c-0.62-1.14-1.35-1.28-2.15-0.85c-0.8,0.43-1.08,1.12-0.46,2.26c1.79,3.29,7.03,1.24,9.51,5.81
			C731.37,310.66,730.91,312.8,728.47,314.13z"/>
	</g>
</g>
</svg>
