<svg width="108" height="60" viewBox="0 0 108 60" fill="none" xmlns="http://www.w3.org/2000/svg">
<g clip-path="url(#clip0_81_6)">
<path d="M4.11039 25.7826C5.32663 27.003 6.73051 27.9323 8.32067 28.5703C9.91083 29.2083 11.5671 29.5374 13.2896 29.5564C15.0107 29.5753 16.6859 29.2841 18.3139 28.6827C19.9405 28.0826 21.401 27.1344 22.6929 25.8381C23.9847 24.5418 24.9337 23.0721 25.5425 21.4304C26.1499 19.7873 26.4442 18.1023 26.4266 16.3752C26.4077 14.6468 26.0797 12.9848 25.4439 11.3891C24.8081 9.79207 23.8821 8.38469 22.6659 7.16423C21.4685 5.96274 20.07 5.03758 18.4691 4.39011C16.8695 3.74263 15.2091 3.40805 13.4867 3.39045C11.7642 3.37148 10.085 3.66677 8.44891 4.27768C6.8115 4.88723 5.34688 5.84083 4.05639 7.13714C2.7659 8.4321 1.81964 9.89773 1.22164 11.5313C0.622291 13.1649 0.332066 14.8459 0.350964 16.573C0.368513 18.3014 0.701934 19.9675 1.34718 21.5726C1.99242 23.1778 2.91439 24.5825 4.11174 25.7839L4.11039 25.7826ZM4.5464 17.9099C5.00401 16.5865 5.6641 15.2956 6.52533 14.0372C7.3852 12.7802 8.33957 11.6248 9.38843 10.5723C10.2119 9.74602 11.119 8.98611 12.1111 8.29122C13.1033 7.59634 14.113 7.06129 15.143 6.68608C16.1716 6.31087 17.1772 6.18354 18.1613 6.30545C19.1427 6.42736 20.0363 6.89197 20.8422 7.69928C21.8708 8.73145 22.4688 9.87876 22.6389 11.1358C22.8063 12.3942 22.6618 13.6932 22.2042 15.0369C21.7453 16.3793 21.0811 17.6837 20.2104 18.9516C19.3411 20.2194 18.3813 21.3789 17.3338 22.4301C16.5104 23.2563 15.6019 24.0162 14.6111 24.7125C13.619 25.4074 12.6079 25.9329 11.5793 26.2905C10.5507 26.6468 9.54906 26.7592 8.5758 26.6292C7.60253 26.4978 6.70486 26.0183 5.88143 25.192C4.85147 24.1585 4.25752 23.0193 4.09959 21.769C3.9403 20.5215 4.09014 19.2347 4.5491 17.9113L4.5464 17.9099Z" fill="#083837"/>
<path d="M33.4933 14.3285C33.9037 13.7704 34.3869 13.4913 34.9417 13.4913C35.9474 13.4913 36.8208 13.9031 37.5619 14.7267C37.8791 15.0721 38.2233 15.4514 38.5945 15.8632C38.9644 16.275 39.4018 16.4795 39.9039 16.4795C40.5924 16.4795 41.135 16.2154 41.5319 15.683C41.9287 15.152 42.1272 14.6075 42.1272 14.0508C42.1272 13.5469 42.0475 13.1541 41.8882 12.8764C41.7303 12.5973 41.5575 12.3644 41.3726 12.1788C41.1607 12.046 40.7233 11.8943 40.0632 11.7209C39.4018 11.5476 38.5284 11.4622 37.4431 11.4622C36.0932 11.4622 34.8162 11.7399 33.6121 12.298C32.408 12.8547 31.3295 13.5997 30.3764 14.5276C29.4234 15.4582 28.6756 16.4944 28.1343 17.6349C27.5916 18.7782 27.3203 19.9458 27.3203 21.1405C27.3203 22.8405 27.6969 24.2939 28.4515 25.5022C29.2061 26.7104 30.205 27.6397 31.4483 28.2899C32.6915 28.94 34.0292 29.2665 35.4574 29.2665C36.7006 29.2665 37.8062 29.0267 38.7727 28.5486C39.7379 28.0704 40.5384 27.5259 41.1742 26.9163C41.8086 26.3054 42.246 25.8286 42.4835 25.4819C42.5632 25.3491 42.6023 25.1107 42.6023 24.7653C42.6023 24.6326 42.5564 24.4863 42.4633 24.3278C42.3702 24.1679 42.2581 24.0745 42.1258 24.0487C41.702 24.4741 41.1593 24.9048 40.4979 25.3437C39.8364 25.7826 38.9361 26.0007 37.7981 26.0007C36.9774 26.0007 36.1377 25.7893 35.2779 25.364C34.4166 24.9387 33.6904 24.2018 33.0938 23.152C32.4985 22.1036 32.2001 20.6759 32.2001 18.8703C32.2001 18.0738 32.3122 17.257 32.5376 16.4212C32.7617 15.5855 33.0803 14.8879 33.4906 14.3298L33.4933 14.3285Z" fill="#083837"/>
<path d="M23.2679 3.94987C27.948 6.58854 26.6372 11.4947 34.9633 9.00236C37.6698 8.19234 43.2597 8.77209 43.616 8.82491C43.9738 8.87774 44.3315 8.95766 44.6878 9.06467C45.0456 9.17033 45.2778 9.33016 45.383 9.54283C45.4883 9.72976 45.568 10.0549 45.622 10.5195V12.5906H43.9144C43.6768 12.7761 43.4649 12.9685 43.2786 13.1676C43.0936 13.3654 42.8952 13.6119 42.6833 13.9031C42.6833 13.9831 42.6887 14.0765 42.7022 14.1822C42.7157 14.2892 42.7751 14.3678 42.8804 14.4219H45.6193V23.8225C45.6193 25.257 45.8703 26.3921 46.3739 27.2293C46.876 28.065 47.5186 28.657 48.2988 29.001C49.079 29.3464 49.8673 29.5198 50.6611 29.5198C51.3495 29.5198 51.984 29.3667 52.5671 29.062C53.1489 28.7572 53.6389 28.4307 54.0358 28.0853C54.4327 27.7413 54.6837 27.5015 54.7904 27.3688C54.843 27.3159 54.9024 27.2089 54.9686 27.0504C55.0333 26.8906 55.0685 26.7592 55.0685 26.6522C55.0685 26.5452 55.0414 26.4328 54.9888 26.3122C54.9362 26.193 54.8822 26.1212 54.8295 26.0928C54.7769 26.1456 54.5325 26.3122 54.0952 26.5913C53.6578 26.8703 53.2151 27.0098 52.7656 27.0098C52.0515 27.0098 51.5223 26.7782 51.1781 26.3122C50.8339 25.849 50.6624 25.0972 50.6624 24.0623V14.4233H54.434C54.6459 14.2905 54.8444 14.0847 55.0293 13.8056C55.2142 13.5266 55.3074 13.2949 55.3074 13.108C55.3074 13.0024 55.2871 12.8886 55.248 12.7694C55.2088 12.6502 55.1481 12.5906 55.0698 12.5906H50.7434V9.82187C50.7434 9.29088 50.7556 8.81408 50.7826 8.38875C50.8082 8.09616 50.8676 7.69115 50.9608 7.17371C51.0525 6.65627 51.1254 6.31763 51.1794 6.1578C51.1794 6.10497 51.1065 5.98441 50.9608 5.79884C50.815 5.61327 50.6759 5.50761 50.5436 5.48052C50.0671 5.72028 49.4178 5.98577 48.5985 6.27835C48.5985 6.27835 40.0659 8.82627 34.9633 4.07314C29.8607 -0.679996 30.6329 2.38807 26.428 0.747705C23.2517 -0.490358 18.8619 1.46697 23.2693 3.95258L23.2679 3.94987Z" fill="#083837"/>
<path d="M56.0376 25.1771C56.7989 26.51 57.8653 27.5625 59.2381 28.34C60.6096 29.1175 62.1957 29.5103 63.9951 29.5198C65.7149 29.5279 67.2524 29.1243 68.6063 28.3075C69.9603 27.492 71.0375 26.3935 71.8379 25.0173C72.6384 23.641 73.0434 22.1429 73.0515 20.5229C73.0596 18.8771 72.683 17.4006 71.9216 16.0948C71.1603 14.7904 70.1006 13.7555 68.7413 12.9915C67.382 12.2276 65.8026 11.8415 64.0032 11.832C62.3091 11.8239 60.7797 12.2208 59.4123 13.0254C58.0448 13.8286 56.9541 14.9042 56.1415 16.2547C55.3275 17.6051 54.9172 19.1033 54.9091 20.7491C54.901 22.3691 55.2776 23.8456 56.0376 25.1771ZM60.5394 17.811C60.6096 17.0552 60.746 16.3441 60.9471 15.6817C61.1496 15.0179 61.456 14.4829 61.8691 14.0725C62.2808 13.6634 62.845 13.4602 63.5591 13.4629C64.2732 13.467 64.8806 13.7149 65.3815 14.2093C65.8809 14.7023 66.2953 15.3485 66.622 16.1463C66.9487 16.9441 67.1889 17.8029 67.3428 18.7199C67.4967 19.637 67.5723 20.5337 67.5683 21.4101C67.5642 22.1009 67.5278 22.8242 67.4576 23.5801C67.3874 24.3359 67.2456 25.0403 67.031 25.6891C66.815 26.3393 66.5019 26.8676 66.0901 27.278C65.6771 27.6884 65.1142 27.8903 64.4001 27.8876C63.686 27.8835 63.0786 27.6356 62.5777 27.1426C62.0769 26.6495 61.6706 26.0088 61.3561 25.2245C61.0429 24.4389 60.8094 23.5882 60.6542 22.6712C60.5003 21.7541 60.4247 20.871 60.4287 20.0203C60.4328 19.3038 60.4692 18.5669 60.5394 17.8097V17.811Z" fill="#083837"/>
<path d="M32.1163 49.3965C31.733 49.3573 31.3739 49.2841 31.0445 49.1771C30.7125 49.0714 30.5073 48.9373 30.4276 48.7789C30.2954 48.4335 30.2157 47.9959 30.1914 47.4636C30.1644 46.9326 30.1509 46.3231 30.1509 45.6309V42.6034C30.1509 40.5594 30.0186 38.854 29.7541 37.4846C29.4908 36.1178 28.9806 35.0938 28.2273 34.4179C27.4728 33.7406 26.355 33.402 24.8715 33.402C24.2897 33.402 23.608 33.5618 22.8265 33.8801C22.0476 34.1984 21.2795 34.617 20.5263 35.1344C19.7717 35.6532 19.1035 36.191 18.5217 36.7477C18.0708 35.5002 17.4701 34.6305 16.7155 34.1388C15.961 33.6471 14.962 33.402 13.7188 33.402C13.137 33.402 12.4945 33.5618 11.7939 33.8801C11.0933 34.1984 10.4305 34.5845 9.80954 35.0356C9.18724 35.4866 8.69049 35.9255 8.32062 36.3495C8.18833 36.4822 8.09519 36.5486 8.04254 36.5486C8.01555 36.5229 8.0034 36.4429 8.0034 36.3102C8.0034 36.2845 8.02365 36.1111 8.06279 35.7914C8.10194 35.4731 8.16268 35.1344 8.24098 34.7755C8.32062 34.4165 8.37327 34.1849 8.40026 34.0779C8.40026 34.0251 8.32062 33.9045 8.16268 33.7189C8.0034 33.5333 7.85761 33.4277 7.72532 33.4006C7.24881 33.6404 6.59952 33.9059 5.78014 34.1984C4.95941 34.4897 4.06714 34.7552 3.10062 34.9949C2.13411 35.2347 1.16084 35.3932 0.183528 35.4717C0.130883 35.4717 0.0903862 35.5652 0.0647384 35.7508C0.0377408 35.9363 0.0377408 36.1287 0.0647384 36.3278C0.0903862 36.5269 0.117384 36.6393 0.144382 36.6664C0.249672 36.6664 0.475103 36.6935 0.819323 36.7464C1.16354 36.7992 1.51451 36.8791 1.87088 36.9861C2.2286 37.0918 2.45943 37.2516 2.56607 37.4643C2.67136 37.6512 2.751 37.9763 2.80365 38.4409C2.8563 38.9055 2.89004 39.3566 2.90354 39.7955C2.91704 40.233 2.92379 40.5188 2.92379 40.6515V45.1134C2.92379 45.9357 2.91029 46.6536 2.88464 47.2645C2.85765 47.8754 2.76585 48.3793 2.60657 48.7775C2.55392 48.9373 2.35414 49.0701 2.01127 49.1757C1.66705 49.2814 1.31608 49.3546 0.959711 49.3952C0.601992 49.4345 0.330665 49.4683 0.145731 49.4941C0.0390907 49.6268 -0.00680533 49.8666 0.00669349 50.212C0.0201923 50.5574 0.0660883 50.7958 0.145731 50.9285C0.912465 50.8486 1.77909 50.7823 2.74561 50.7294C3.71077 50.6766 4.60439 50.6495 5.42512 50.6495C6.24585 50.6495 7.10573 50.6766 8.0061 50.7294C8.90512 50.7823 9.72585 50.8486 10.4669 50.9285C10.5466 50.7958 10.5925 50.5574 10.606 50.212C10.6181 49.8666 10.5722 49.6282 10.4669 49.4941C10.3076 49.4683 10.0633 49.4345 9.7326 49.3952C9.40188 49.3559 9.09815 49.2828 8.82008 49.1757C8.542 49.0701 8.36382 48.936 8.28417 48.7775C8.12624 48.3793 8.03309 47.8483 8.0061 47.1846C7.9791 46.5208 7.96695 45.83 7.96695 45.1134V38.7403C7.96695 38.4748 8.14513 38.1768 8.50285 37.8435C8.86057 37.5117 9.30333 37.2204 9.83249 36.9671C10.3616 36.7152 10.8773 36.5892 11.3808 36.5892C12.0692 36.5892 12.597 36.8479 12.9683 37.3667C13.3381 37.8842 13.596 38.5615 13.7417 39.3986C13.8875 40.2343 13.9604 41.1175 13.9604 42.0481V45.6322C13.9604 46.3231 13.9469 46.934 13.9213 47.4649C13.8943 47.9973 13.8146 48.4348 13.6824 48.7802C13.5771 49.0457 13.2652 49.2259 12.7496 49.318C12.2339 49.4114 11.8425 49.471 11.5792 49.4968C11.4726 49.6295 11.4267 49.8693 11.4402 50.2147C11.4537 50.5601 11.4996 50.7985 11.5792 50.9313C12.346 50.8513 13.1532 50.785 14.0009 50.7321C14.8473 50.6793 15.6815 50.6522 16.5023 50.6522C17.323 50.6522 18.2153 50.6793 19.1804 50.7321C20.1483 50.785 21.0001 50.8513 21.7411 50.9313C21.8208 50.7985 21.8667 50.5601 21.8802 50.2147C21.8937 49.8693 21.8478 49.6309 21.7411 49.4968C21.5819 49.471 21.3186 49.4372 20.9488 49.3979C20.5762 49.3586 20.2333 49.2855 19.9161 49.1785C19.5989 49.0728 19.4005 48.9387 19.3208 48.7802C19.1615 48.382 19.0684 47.8781 19.0441 47.2672C19.0171 46.6563 19.0036 45.9384 19.0036 45.1161V42.6062C19.0036 41.9153 18.9901 41.2665 18.9644 40.6542C18.9374 40.0433 18.8969 39.4731 18.8443 38.9421V38.7023C18.8443 38.4368 19.0441 38.1388 19.4396 37.807C19.8365 37.4737 20.3197 37.1893 20.8894 36.9509C21.4577 36.7111 21.9936 36.5919 22.4957 36.5919C23.1842 36.5919 23.7201 36.8507 24.1048 37.3695C24.4882 37.8869 24.7527 38.5642 24.8972 39.4013C25.043 40.237 25.1159 41.1202 25.1159 42.0508V45.1175C25.1159 45.9397 25.1024 46.6576 25.0767 47.2685C25.0497 47.8794 24.9566 48.3833 24.7973 48.7816C24.692 49.0471 24.3937 49.2272 23.9037 49.3193C23.415 49.4128 23.037 49.4724 22.7738 49.4981C22.6672 49.6309 22.6213 49.8706 22.6348 50.216C22.6483 50.5615 22.6955 50.7999 22.7738 50.9326C23.5419 50.8527 24.3343 50.7863 25.1564 50.7335C25.9757 50.6807 26.7965 50.6536 27.6158 50.6536C28.4352 50.6536 29.3423 50.6807 30.3359 50.7335C31.328 50.7863 32.1946 50.8527 32.9371 50.9326C33.0167 50.7999 33.0613 50.5615 33.0748 50.216C33.0883 49.8706 33.0424 49.6322 32.9371 49.4981C32.7778 49.4724 32.5065 49.4385 32.1231 49.3993L32.1163 49.3965Z" fill="#083837"/>
<path d="M52.2621 49.8422C52.4214 49.6024 52.3876 49.2408 52.3174 48.9265C52.2594 48.6678 52.2229 48.4998 52.1433 48.4212H52.0637C51.8517 48.4212 51.5601 48.4091 51.1903 48.382C50.8191 48.3562 50.5558 48.2492 50.3965 48.0636C50.2103 47.851 50.105 47.6248 50.0793 47.3864C50.0523 47.148 50.0402 46.8825 50.0402 46.5899V37.7474C50.0402 37.2164 50.0523 36.7382 50.0793 36.3142C50.105 36.0217 50.1644 35.6166 50.2575 35.0992C50.3506 34.5818 50.4235 34.2431 50.4762 34.0833C50.4762 34.0305 50.3965 33.9099 50.2373 33.7243C50.078 33.5388 49.9335 33.4331 49.7999 33.406C49.3234 33.6458 48.6741 33.9113 47.8547 34.2038C47.0353 34.4951 46.1417 34.7606 45.1752 35.0003C44.2087 35.2401 43.2368 35.3986 42.2581 35.4771C42.2055 35.4771 42.165 35.5706 42.1393 35.7562C42.1123 35.9417 42.1123 36.1341 42.1393 36.3332C42.165 36.5323 42.192 36.6447 42.219 36.6718C42.3243 36.6718 42.5497 36.6989 42.8939 36.7518C43.2381 36.8046 43.5891 36.8845 43.9468 36.9915C44.3032 37.0972 44.5354 37.257 44.6406 37.4697C44.7459 37.6566 44.8256 37.9817 44.8796 38.4463C44.9322 38.9109 44.966 39.362 44.9795 39.8009C44.9916 40.2384 44.9984 40.5242 44.9984 40.6569V47.1507C44.9984 47.4419 44.7203 47.7548 44.1655 48.0867C43.6107 48.4199 43.068 48.5851 42.5389 48.5851C41.3213 48.5851 40.5073 48.0474 40.0983 46.9719C39.6879 45.8964 39.4827 44.3224 39.4827 42.2526V37.7514C39.4827 37.2204 39.4949 36.7423 39.5219 36.3183C39.5475 36.0257 39.6069 35.6207 39.7001 35.1033C39.7919 34.5858 39.8648 34.2472 39.9188 34.0873C39.9188 34.0345 39.8459 33.914 39.7001 33.7284C39.5543 33.5428 39.4153 33.4372 39.283 33.4101C38.8065 33.6498 38.1572 33.9153 37.3378 34.2079C36.5171 34.4991 35.6167 34.7646 34.6394 35.0044C33.6594 35.2441 32.6793 35.4026 31.702 35.4812C31.648 35.4812 31.6089 35.5746 31.5832 35.7602C31.5562 35.9458 31.5562 36.1381 31.5832 36.3373C31.6089 36.5364 31.6359 36.6488 31.6629 36.6759C31.7682 36.6759 32.0003 36.703 32.3567 36.7558C32.7144 36.8086 33.0722 36.8886 33.4285 36.9956C33.7862 37.1012 34.0184 37.2611 34.1237 37.4737C34.229 37.6607 34.3086 37.9858 34.3626 38.4504C34.4153 38.915 34.4477 39.366 34.4612 39.8049C34.4747 40.2424 34.4814 40.5283 34.4814 40.661V44.0068C34.4814 45.2286 34.634 46.3705 34.9377 47.4324C35.2414 48.4957 35.7571 49.3518 36.486 50.002C37.2136 50.6536 38.199 50.9786 39.4436 50.9786C40.3426 50.9786 41.1634 50.8716 41.9044 50.6603C42.6455 50.4477 43.2732 50.2025 43.7902 49.9234C44.3059 49.6458 44.669 49.4385 44.8809 49.3058C44.9336 49.2529 44.9673 49.2597 44.9808 49.3261C44.993 49.3925 44.9997 49.4521 44.9997 49.5049V50.1036C44.9997 50.7402 45.1185 51.0599 45.3574 51.0599C45.4897 51.0599 45.8002 51.0003 46.2902 50.8798C46.7802 50.7606 47.362 50.621 48.037 50.4612C48.7119 50.3014 49.399 50.1497 50.1009 50.0034C50.8029 49.8584 51.606 49.7785 52.2648 49.8517L52.2621 49.8422Z" fill="#083837"/>
<path d="M59.5258 49.5361C59.0223 49.5361 58.4796 49.4169 57.8978 49.1785C57.316 48.9387 56.7869 48.5147 56.3104 47.9038C55.8339 47.2929 55.5031 46.4301 55.3182 45.3139C55.2656 45.1812 55.1454 45.0891 54.9605 45.0362C54.7756 44.9834 54.6163 44.9563 54.484 44.9563C54.3773 44.9563 54.2518 44.9631 54.1074 44.9753C53.9616 44.9888 53.8887 45.062 53.8887 45.1947C53.8887 45.3004 53.8954 45.5794 53.9089 46.0305C53.9211 46.4815 53.9481 46.9936 53.9886 47.5638C54.0277 48.1341 54.0682 48.6719 54.1074 49.1771C54.1465 49.6824 54.1789 50.04 54.2059 50.2526C54.6824 50.3583 55.3439 50.5249 56.1902 50.7511C57.0366 50.976 57.883 51.0897 58.7307 51.0897C60.0806 51.0897 61.3373 50.9096 62.5023 50.552C63.6659 50.193 64.5987 49.6228 65.3006 48.8385C66.0012 48.0555 66.3535 47.0125 66.3535 45.7122C66.3535 44.5974 66.1483 43.721 65.738 43.083C65.3276 42.445 64.8052 41.9275 64.1694 41.5293C63.5349 41.1311 62.8722 40.7721 62.1851 40.4538C61.6289 40.1625 61.039 39.8835 60.4181 39.618C59.7958 39.3539 59.2734 39.0139 58.8495 38.6021C58.4256 38.1903 58.2151 37.6526 58.2151 36.9888C58.2151 36.3251 58.4256 35.7806 58.8495 35.4352C59.2734 35.0911 59.8025 34.9177 60.4383 34.9177C61.3373 34.9177 62.0649 35.1236 62.6211 35.5354C63.1772 35.9472 63.5997 36.4511 63.8913 37.0484C64.1815 37.6471 64.3948 38.2377 64.5271 38.8215C64.6594 38.9015 64.7782 38.9746 64.8835 39.041C64.9888 39.1087 65.1224 39.1412 65.2803 39.1412C65.4126 39.1412 65.5638 39.1155 65.7366 39.0613C65.908 39.0085 65.9944 38.9421 65.9944 38.8622C65.9944 38.6224 65.9485 38.212 65.8554 37.6268C65.7622 37.043 65.6502 36.4118 65.5179 35.7359C65.3856 35.0586 65.2655 34.5073 65.1602 34.082C64.5258 33.9492 63.8765 33.7907 63.215 33.6038C62.5536 33.4196 61.7598 33.3261 60.8325 33.3261C60.0644 33.3261 59.2639 33.425 58.431 33.6241C57.5982 33.8232 56.8166 34.1361 56.089 34.5601C55.3601 34.9854 54.7648 35.5367 54.3017 36.2127C53.8387 36.8899 53.6079 37.7203 53.6079 38.7023C53.6079 40.0041 54.0115 41.0525 54.8188 41.849C55.6246 42.6454 56.5979 43.3498 57.7358 43.9607C58.3446 44.2804 58.9534 44.5784 59.5622 44.8561C60.1697 45.1351 60.6799 45.4683 61.089 45.8517C61.4993 46.2377 61.7045 46.7619 61.7045 47.4257C61.7045 47.958 61.5128 48.4416 61.1295 48.8791C60.7461 49.318 60.2102 49.5361 59.5231 49.5361H59.5258Z" fill="#083837"/>
<path d="M96.144 44.8953C91.9 42.5493 87.0215 42.4991 82.6681 45.9519C81.8582 46.6603 81.7003 46.808 81.0402 47.2468C80.3787 47.6857 79.4783 47.9038 78.3404 47.9038C77.9165 47.9038 77.3941 47.8185 76.7732 47.6451C76.1509 47.4717 75.5488 47.1615 74.967 46.7091C74.3852 46.258 73.8952 45.6011 73.4984 44.7382C73.1015 43.8754 72.9031 42.766 72.9031 41.4114C73.8561 41.3857 74.8874 41.3518 75.9997 41.3125C77.1107 41.2733 78.2095 41.2204 79.2948 41.1527C80.3801 41.0863 81.3587 41.0132 82.2321 40.9333C82.5223 40.9075 82.768 40.7341 82.9651 40.4145C83.1649 40.0962 83.2634 39.725 83.2634 39.2997C83.2634 38.7416 83.1433 38.1239 82.9071 37.4466C82.6681 36.7694 82.2902 36.126 81.7745 35.5137C81.2588 34.9041 80.5637 34.3989 79.6903 34.0007C78.8169 33.6024 77.7451 33.4019 76.4749 33.4019C75.3639 33.4019 74.2921 33.6688 73.2594 34.1998C72.2268 34.7308 71.3075 35.4541 70.5003 36.3698C69.6931 37.2855 69.0519 38.3217 68.5754 39.4771C68.0988 40.6326 67.8613 41.8205 67.8613 43.0423C67.8613 44.7423 68.2379 46.1957 68.9925 47.404C69.7471 48.6122 70.746 49.5415 71.9892 50.1917C73.2324 50.8418 74.5702 51.1683 75.9984 51.1683C77.2416 51.1683 78.3471 50.9285 79.3123 50.4504C79.4392 50.3881 79.5553 50.3203 79.6768 50.2553C87.6087 44.3319 96.144 49.4981 96.1764 52.0555C96.2034 54.2269 90.8619 56.9346 86.9796 56.6691C83.4565 56.428 80.0939 56.5486 73.0489 53.0701C67.2997 50.2323 64.5014 52.8574 58.5943 53.7243C55.2466 54.216 52.424 50.7606 50.0698 53.8422C49.8444 54.1361 49.6783 54.552 49.5312 55.0437C48.8927 57.1798 52.5846 62.3501 58.4593 58.7673C60.9755 57.2326 59.9793 57.276 63.1529 55.5408C71.5599 50.9434 74.4271 58.0874 90.1276 58.6536C105.028 59.1913 95.7957 56.768 97.9933 52.0555C99.1893 49.4927 98.8384 46.3826 96.1413 44.8926L96.144 44.8953ZM73.1015 38.5628C73.2068 38.0183 73.385 37.4805 73.6374 36.9495C73.8885 36.4185 74.2125 35.9675 74.6093 35.595C75.0062 35.2238 75.4962 35.0383 76.078 35.0383C76.6598 35.0383 77.1228 35.2374 77.467 35.6356C77.8112 36.0338 78.0623 36.5255 78.2216 37.1094C78.3795 37.6945 78.4592 38.2905 78.4592 38.9014C78.4592 39.0071 78.4322 39.1344 78.3796 39.2794C78.3269 39.4257 78.1811 39.5123 77.9435 39.5381C77.706 39.5652 77.3347 39.599 76.8326 39.6383C76.3291 39.6776 75.7932 39.7182 75.2249 39.7575C74.6552 39.7968 74.1531 39.8239 73.7171 39.8374C73.281 39.851 73.0219 39.8564 72.9422 39.8564C72.9422 39.5367 72.9949 39.106 73.1015 38.5614V38.5628Z" fill="#083837"/>
<path d="M100.882 25.3179L89.52 20.9956L99.0394 13.4195L87.9595 18.4246L89.3526 6.31219L85.0451 17.7135L77.4953 8.16116L82.4831 19.2793L74.4324 18.3474C74.4823 18.701 74.5161 19.068 74.5296 19.4487L81.773 22.2052L72.2537 29.7812L83.3335 24.7761L82.286 33.8882C82.5519 34.2038 82.5479 34.0928 82.8273 34.5411L86.2479 25.4873L93.7978 35.0396L88.81 23.9214L100.881 25.3193L100.882 25.3179Z" fill="#F0ACB6"/>
<path d="M70.615 6.44768L70.8904 6.17542L72.3671 7.68168L72.8207 7.23468L73.0664 7.48527L72.3374 8.20454L70.615 6.44633V6.44768Z" fill="#083837"/>
<path d="M74.647 6.16456L74.3433 6.40838L74.0126 6.1009L73.6427 6.39754L73.8695 6.78901L73.5928 7.01116L72.3657 4.83981L72.8071 4.48627L74.6484 6.16592L74.647 6.16456ZM73.4726 6.10631L73.7628 5.87333L72.8422 5.0159L73.4726 6.10631Z" fill="#083837"/>
<path d="M76.8813 3.69928L77.0379 3.98644C77.2268 4.33185 77.1634 4.62444 76.83 4.8073C76.4979 4.99017 76.2171 4.88722 76.0281 4.54181L75.4139 3.41753C75.225 3.07212 75.2898 2.77953 75.6218 2.59667C75.9539 2.4138 76.2347 2.51675 76.4237 2.86216L76.5384 3.07212L76.2185 3.24821L76.0916 3.01658C76.0065 2.86216 75.9067 2.84049 75.8 2.90009C75.6934 2.95969 75.6569 3.05586 75.7406 3.21028L76.3791 4.37791C76.4628 4.53233 76.5613 4.54994 76.6693 4.49169C76.7773 4.43209 76.8138 4.33998 76.7301 4.18556L76.5613 3.87672L76.8813 3.70063V3.69928Z" fill="#083837"/>
<path d="M78.8534 3.81576C78.8102 3.76564 78.7818 3.73449 78.7049 3.55027L78.5564 3.19267C78.4687 2.98136 78.3647 2.93259 78.2027 3.00032L78.0799 3.05179L78.4646 3.97831L78.1082 4.12731L77.1633 1.85166L77.7006 1.6268C78.0704 1.47238 78.2999 1.57804 78.4457 1.93022L78.52 2.10902C78.6172 2.34336 78.6064 2.52758 78.4781 2.66845C78.6873 2.66845 78.8169 2.8161 78.9155 3.0545L79.0613 3.40533C79.1072 3.51641 79.1436 3.59632 79.2152 3.66541L78.852 3.81712L78.8534 3.81576ZM77.6547 2.02775L77.9449 2.7267L78.084 2.66845C78.2162 2.61292 78.2729 2.52081 78.1973 2.33794L78.1042 2.11309C78.0367 1.95054 77.9517 1.90178 77.8261 1.9546L77.6547 2.0264V2.02775Z" fill="#083837"/>
<path d="M79.9859 1.9072L80.4935 1.75549L80.5934 2.09277L80.0858 2.24448L80.2896 2.93666L80.9295 2.74702L81.0294 3.0843L80.0197 3.38501L79.3218 1.02132L80.3315 0.720605L80.4314 1.05789L79.7915 1.24753L79.9859 1.90584V1.9072ZM80.0723 0.254639L79.8401 0.731442L79.5918 0.805942L79.7105 0.363003L80.0737 0.254639H80.0723Z" fill="#083837"/>
<path d="M83.1135 2.65358L82.7301 2.72402L82.5843 2.29598L82.1186 2.38132L82.1335 2.83374L81.7852 2.8974L81.7312 0.402312L82.2874 0.30072L83.1148 2.65494L83.1135 2.65358ZM82.1065 2.04268L82.4723 1.9763L82.066 0.782942L82.1065 2.04268Z" fill="#083837"/>
<path d="M83.6265 0.109737L84.8157 0.0189819L84.8427 0.369812L84.4404 0.400966L84.5997 2.50865L84.215 2.53845L84.0557 0.432121L83.6535 0.463276L83.6265 0.112446V0.109737Z" fill="#083837"/>
<path d="M85.8659 0L86.252 0.00677277L86.2115 2.47206L85.8254 2.46529L85.8659 0Z" fill="#083837"/>
<path d="M87.7653 2.10771L88.2539 0.13548L88.6062 0.170698L87.9893 2.58722L87.417 2.53033L87.2793 0.0393066L87.6667 0.0772342L87.7653 2.10771Z" fill="#083837"/>
<path d="M89.6388 0.339966L90.0181 0.411757L89.5605 2.8337L89.1812 2.76191L89.6388 0.339966Z" fill="#083837"/>
<path d="M91.0265 0.629883L92.1752 0.953621L92.0807 1.29226L91.692 1.18254L91.1237 3.21708L90.7524 3.11278L91.3207 1.07824L90.932 0.968521L91.0265 0.629883Z" fill="#083837"/>
<path d="M93.1581 2.4057L93.6508 2.60076L93.5225 2.92856L93.0298 2.73351L92.7653 3.40536L93.3862 3.65054L93.258 3.97834L92.2793 3.59094L93.181 1.29768L94.1597 1.68508L94.0314 2.01288L93.4105 1.76771L93.1594 2.40706L93.1581 2.4057ZM94.2407 1.1568L93.7642 1.38843L93.5225 1.29226L93.887 1.01593L94.2393 1.15545L94.2407 1.1568Z" fill="#083837"/>
<path d="M96.858 3.0464C97.1792 3.24146 97.2278 3.53404 97.0254 3.87268L96.9848 3.93905L96.673 3.74942L96.7257 3.66137C96.8161 3.51101 96.7905 3.41755 96.6865 3.35253C96.5812 3.28887 96.4867 3.30919 96.3963 3.45954C96.1344 3.893 96.7311 4.36709 96.368 4.96987C96.1641 5.30715 95.8807 5.39791 95.5553 5.2015C95.2314 5.00509 95.1787 4.7098 95.3825 4.37251L95.4608 4.24247L95.7727 4.43211L95.6822 4.58247C95.5918 4.73282 95.6242 4.82764 95.7295 4.89131C95.8348 4.95497 95.9333 4.94142 96.0237 4.78971C96.2856 4.35626 95.689 3.88216 96.0521 3.27939C96.2559 2.9421 96.5367 2.84864 96.858 3.04369V3.0464Z" fill="#083837"/>
<path d="M97.8771 4.45242C98.1147 4.13817 98.4157 4.08399 98.7168 4.31426C99.0191 4.54453 99.0475 4.84931 98.8099 5.16357L98.0378 6.1849C97.8002 6.49916 97.4992 6.55334 97.1982 6.32306C96.8958 6.09279 96.8674 5.78802 97.105 5.47376L97.8771 4.45242ZM97.3979 5.72706C97.2913 5.86793 97.3129 5.96682 97.4114 6.04132C97.5086 6.11582 97.6112 6.10904 97.7165 5.96953L98.5183 4.90891C98.625 4.76804 98.6034 4.66915 98.5048 4.59465C98.4076 4.52015 98.3051 4.52693 98.1998 4.66644L97.3979 5.72706Z" fill="#083837"/>
<path d="M100.311 5.69317L99.0097 7.07617C98.8895 7.20485 98.9017 7.30373 98.9908 7.38771C99.0799 7.4717 99.1798 7.47982 99.2999 7.35114L100.601 5.96814L100.867 6.22009L99.582 7.58548C99.312 7.87264 99.0151 7.90109 98.7397 7.63966C98.4643 7.37823 98.4751 7.07888 98.7451 6.79306L100.029 5.42767L100.31 5.69317H100.311Z" fill="#083837"/>
<path d="M102.028 7.44598C102.272 7.73179 102.228 8.02573 101.93 8.2831L101.872 8.33321L101.634 8.05553L101.711 7.98916C101.845 7.87402 101.849 7.77785 101.769 7.68438C101.689 7.59092 101.592 7.58144 101.46 7.69522C101.076 8.02573 101.495 8.66237 100.962 9.12021C100.663 9.37758 100.365 9.37351 100.118 9.08499C99.871 8.79647 99.9142 8.49982 100.213 8.24246L100.327 8.14358L100.565 8.42126L100.431 8.5364C100.298 8.65153 100.3 8.75042 100.38 8.84524C100.46 8.9387 100.558 8.95631 100.692 8.84253C101.075 8.51202 100.657 7.87537 101.19 7.41754C101.488 7.16017 101.785 7.16152 102.029 7.44734L102.028 7.44598Z" fill="#083837"/>
<path d="M103.767 9.82458L104.384 10.85L104.083 11.0315L103.875 10.6847L102.071 11.7765L101.872 11.4446L103.675 10.3529L103.467 10.0061L103.768 9.82458H103.767Z" fill="#083837"/>
<path d="M104.334 12.0136C104.69 11.8456 104.98 11.939 105.142 12.2831C105.304 12.6272 105.188 12.9116 104.832 13.0782L103.675 13.6228C103.319 13.7907 103.028 13.6973 102.866 13.3532C102.704 13.0091 102.821 12.7247 103.177 12.5581L104.334 12.0136ZM103.319 12.9184C103.159 12.9929 103.132 13.0918 103.184 13.2028C103.236 13.3139 103.329 13.3559 103.487 13.2814L104.689 12.7166C104.848 12.6421 104.875 12.5432 104.824 12.4321C104.771 12.321 104.678 12.279 104.52 12.3535L103.319 12.9184Z" fill="#083837"/>
<path d="M105.916 14.254L104.123 14.8689C103.957 14.9258 103.922 15.0193 103.963 15.1358C104.002 15.2523 104.087 15.3051 104.253 15.2482L106.045 14.6332L106.163 14.98L104.393 15.5869C104.022 15.7142 103.745 15.6004 103.622 15.2414C103.5 14.8811 103.649 14.6224 104.021 14.4951L105.79 13.8882L105.915 14.2553L105.916 14.254Z" fill="#083837"/>
<path d="M106.452 15.9905L106.718 17.1582L106.376 17.2367L106.286 16.8426L104.232 17.3126L104.146 16.9347L106.199 16.4646L106.109 16.0705L106.452 15.9919V15.9905Z" fill="#083837"/>
<path d="M105.914 18.72L105.979 19.2482L105.631 19.2916L105.566 18.7633L104.852 18.8513L104.933 19.5151L104.585 19.5584L104.457 18.51L106.894 18.2093L107.023 19.2577L106.674 19.3011L106.593 18.6373L105.914 18.7213V18.72Z" fill="#083837"/>
<path d="M107.143 20.9116C107.151 21.2882 106.93 21.4873 106.537 21.4941H106.46L106.453 21.1297L106.554 21.127C106.73 21.1229 106.795 21.0511 106.792 20.9279C106.789 20.8046 106.722 20.7355 106.546 20.7396C106.041 20.7491 105.962 21.509 105.258 21.5225C104.866 21.5306 104.637 21.3383 104.629 20.9577C104.621 20.577 104.843 20.3752 105.235 20.3671L105.387 20.3644L105.393 20.7301L105.218 20.7342C105.042 20.7382 104.98 20.8168 104.983 20.94C104.986 21.0633 105.051 21.1392 105.226 21.1365C105.731 21.127 105.811 20.3671 106.512 20.3535C106.905 20.3454 107.135 20.535 107.142 20.9116H107.143Z" fill="#083837"/>
<path d="M106.917 24.4877C106.862 24.8602 106.612 25.0186 106.224 24.9617L106.147 24.9509L106.199 24.5879L106.301 24.6028C106.475 24.6285 106.55 24.5689 106.568 24.447C106.585 24.3251 106.53 24.2452 106.356 24.2194C105.856 24.1449 105.651 24.8805 104.957 24.7775C104.569 24.7193 104.376 24.4917 104.431 24.1151C104.486 23.7386 104.737 23.576 105.126 23.6343L105.276 23.656L105.222 24.019L105.048 23.9932C104.874 23.9675 104.801 24.0352 104.782 24.1571C104.763 24.279 104.816 24.3644 104.988 24.3901C105.488 24.4646 105.693 23.7291 106.387 23.832C106.776 23.8903 106.97 24.1138 106.915 24.4877H106.917Z" fill="#083837"/>
<path d="M105.484 26.2689L105.353 26.7836L105.013 26.6969L105.144 26.1822L104.447 26.0034L104.282 26.6522L103.942 26.5655L104.203 25.5415L106.583 26.1524L106.322 27.1765L105.982 27.0898L106.146 26.4409L105.484 26.2703V26.2689Z" fill="#083837"/>
<path d="M105.828 28.7586C105.698 29.1121 105.42 29.215 105.052 29.0782L104.979 29.0511L105.106 28.7071L105.202 28.7423C105.366 28.8033 105.453 28.7599 105.496 28.6448C105.539 28.5296 105.5 28.4402 105.335 28.3793C104.861 28.2032 104.511 28.8805 103.852 28.6366C103.483 28.4998 103.34 28.2371 103.472 27.8794C103.603 27.5232 103.883 27.4162 104.251 27.553L104.393 27.6058L104.266 27.9499L104.101 27.8889C103.937 27.828 103.85 27.8781 103.809 27.9946C103.767 28.1111 103.798 28.2045 103.962 28.2655C104.436 28.4416 104.787 27.7643 105.446 28.0081C105.814 28.1449 105.959 28.405 105.828 28.7586Z" fill="#083837"/>
<path d="M103.406 31.3268L103.159 31.7602L102.856 31.5855L103.103 31.152L102.222 30.6454L102.414 30.3095L104.546 31.5354L104.038 32.424L103.734 32.2492L104.05 31.6966L103.408 31.3268H103.406Z" fill="#083837"/>
<path d="M102.992 32.9658C103.311 33.1961 103.373 33.4968 103.151 33.8056C102.93 34.1145 102.626 34.151 102.308 33.9207L101.271 33.1717C100.952 32.9414 100.89 32.6407 101.112 32.3319C101.333 32.023 101.637 31.9864 101.955 32.2167L102.992 32.9658ZM101.71 32.5174C101.568 32.4145 101.468 32.4389 101.396 32.5391C101.325 32.6393 101.334 32.7409 101.476 32.8439L102.553 33.6214C102.695 33.7243 102.795 33.7 102.866 33.5997C102.938 33.4995 102.928 33.3979 102.787 33.2949L101.71 32.5174Z" fill="#083837"/>
<path d="M99.6955 34.124C99.7562 34.151 99.794 34.1659 99.9439 34.3L100.231 34.5588C100.401 34.7118 100.515 34.7105 100.632 34.5791L100.721 34.4802L99.9776 33.8097L100.235 33.5212L102.063 35.1683L101.674 35.6031C101.407 35.9025 101.153 35.9052 100.871 35.6519L100.728 35.5219C100.541 35.3525 100.472 35.1819 100.526 34.999C100.337 35.0884 100.156 35.0112 99.9654 34.8392L99.6833 34.5845C99.5942 34.5046 99.5267 34.449 99.4336 34.4165L99.6955 34.1226V34.124ZM101.543 35.2211L100.982 34.7159L100.881 34.8283C100.785 34.9353 100.773 35.0437 100.92 35.1751L101.099 35.3376C101.23 35.4555 101.327 35.4623 101.419 35.3607L101.543 35.2211Z" fill="#083837"/>
<path d="M98.6952 36.0962L99.6455 37.5875L99.2419 37.9424L97.6248 36.088L97.9001 35.8469L99.0597 37.1771L98.0999 35.6708L98.3739 35.4297L99.7346 36.5513L98.5913 35.2401L98.845 35.0179L100.462 36.8723L100.059 37.2272L98.6966 36.0975L98.6952 36.0962Z" fill="#083837"/>
<path d="M97.3791 38.0291L96.9417 38.3298L96.7433 38.04L97.1806 37.7392L96.773 37.1446L96.2236 37.5225L96.0251 37.2326L96.8931 36.6353L98.2835 38.6685L97.4155 39.2658L97.2171 38.976L97.7665 38.598L97.3791 38.0318V38.0291Z" fill="#083837"/>
<path d="M96.0009 40.1314C95.6715 40.3115 95.3948 40.2059 95.2071 39.8591L95.1707 39.7914L95.4919 39.6167L95.5405 39.7061C95.6242 39.8605 95.7174 39.8862 95.8254 39.8266C95.9334 39.7684 95.9631 39.6749 95.8794 39.5205C95.6377 39.0748 94.9304 39.3525 94.5956 38.7335C94.408 38.3867 94.4741 38.0955 94.8062 37.914C95.1396 37.7325 95.4191 37.8368 95.6067 38.1835L95.6782 38.3163L95.357 38.491L95.2733 38.3366C95.1896 38.1822 95.091 38.1632 94.983 38.2215C94.8751 38.2797 94.8373 38.3732 94.9209 38.5276C95.1626 38.9732 95.8699 38.6956 96.2047 39.3146C96.3923 39.6613 96.3302 39.9512 95.9995 40.1314H96.0009Z" fill="#083837"/>
</g>
<defs>
<clipPath id="clip0_81_6">
<rect width="107.143" height="60" fill="white"/>
</clipPath>
</defs>
</svg>
