<?xml version="1.0" encoding="utf-8"?>
<!-- Generator: Adobe Illustrator 27.2.0, SVG Export Plug-In . SVG Version: 6.00 Build 0)  -->
<svg version="1.1" id="Calque_1" xmlns="http://www.w3.org/2000/svg" xmlns:xlink="http://www.w3.org/1999/xlink" x="0px" y="0px"
	 width="24px" height="24px" viewBox="0 0 24 24" style="enable-background:new 0 0 24 24;" xml:space="preserve">
<style type="text/css">
	.st0{fill:#FFFFFF;}
</style>
<g>
	<g>
		<path class="st0" d="M15.31,11.03c-0.66,0-1.2,0.53-1.2,1.2c0,0.04,0,0.07,0,0.11h2.47c0.06-0.66-0.42-1.25-1.08-1.31
			C15.44,11.03,15.38,11.03,15.31,11.03z"/>
		<path class="st0" d="M8.99,12.36H7.51v2.33h1.2c1.2,0,1.73-0.4,1.73-1.2S9.89,12.36,8.99,12.36z"/>
		<path class="st0" d="M10.03,10.22c0-0.64-0.42-1.02-1.14-1.02H7.51v2.09h1.02C9.6,11.29,10.03,10.91,10.03,10.22z"/>
		<path class="st0" d="M12,0C5.38,0,0,5.38,0,12s5.38,12,12,12s12-5.38,12-12S18.62,0,12,0z M9.24,15.84H6v-7.8h3.24
			c1.4,0,2.33,0.73,2.33,1.92c0.04,0.83-0.54,1.55-1.34,1.72c1.01,0.02,1.8,0.86,1.78,1.86c0,0.04,0,0.07,0,0.11
			C12,15.04,10.8,15.84,9.24,15.84z M13.5,8.64h3.6v0.6h-3.6V8.64z M18,13.26h-3.96v0.17c-0.08,0.71,0.43,1.34,1.13,1.42
			c0.06,0,0.12,0,0.18,0c0.53,0.08,1.04-0.24,1.2-0.76H18c-0.26,1.19-1.39,1.99-2.6,1.86c-1.42,0.14-2.69-0.89-2.83-2.3
			c-0.01-0.16-0.01-0.3,0-0.46v-0.53c-0.1-1.39,0.96-2.6,2.35-2.7c0.13,0,0.26,0,0.38,0c1.4-0.08,2.62,0.97,2.7,2.38
			c0,0.12,0,0.23,0,0.35v0.56V13.26z"/>
	</g>
</g>
</svg>
