<?xml version="1.0" encoding="utf-8"?>
<!-- Generator: Adobe Illustrator 27.3.0, SVG Export Plug-In . SVG Version: 6.00 Build 0)  -->
<svg version="1.1" id="Calque_1" xmlns="http://www.w3.org/2000/svg" xmlns:xlink="http://www.w3.org/1999/xlink" x="0px" y="0px"
	 width="25px" height="24px" viewBox="0 0 25 24" style="enable-background:new 0 0 25 24;" xml:space="preserve">
<style type="text/css">
	.st0{fill:#FFFFFF;}
</style>
<g>
	<path class="st0" d="M24,6.89V6.7c-0.18-0.21-0.09-0.48-0.13-0.72c-0.19-1.28-0.6-2.45-1.41-3.47c-0.53-0.66-1.17-1.2-1.92-1.58
		c-0.63-0.32-1.28-0.55-1.99-0.65c-0.65-0.1-1.3-0.2-1.97-0.19c-0.15,0-0.31-0.01-0.46-0.09h-8.3C7.7,0.08,7.54,0.09,7.4,0.09
		c-0.85,0-1.69,0.07-2.5,0.3C4.1,0.61,3.33,0.94,2.67,1.46C2.64,1.45,2.63,1.48,2.62,1.5C1.85,2.11,1.24,2.84,0.83,3.74
		c-0.29,0.65-0.49,1.33-0.6,2.04c-0.09,0.56-0.1,1.11-0.14,1.67c-0.06,0.7-0.01,1.4-0.04,2.1C0.04,9.6,0.09,9.67,0,9.7v0.28
		c0.1,0.06,0.04,0.16,0.04,0.23c0,1.95-0.02,3.9,0.02,5.85c0.01,0.79,0.05,1.59,0.21,2.38c0.2,1.01,0.53,1.96,1.13,2.79
		c0.81,1.12,1.88,1.89,3.21,2.29c0.67,0.2,1.34,0.32,2.04,0.38c0.35,0.03,0.7,0.03,1.04,0.04c0.04,0,0.08-0.01,0.09,0.05h5.25
		l0.01-0.01l-0.01,0.01h3.14c0.12-0.09,0.26-0.04,0.4-0.05c1.06-0.04,2.11-0.14,3.12-0.51c0.72-0.26,1.36-0.63,1.95-1.12
		c0.66-0.55,1.17-1.21,1.54-1.97c0.33-0.67,0.54-1.37,0.64-2.11c0.04-0.3,0.1-0.59,0.09-0.89c0-0.08,0.03-0.15,0.09-0.19v-0.28
		c-0.08-0.08,0-0.16,0-0.23V7.08C24,7.02,23.92,6.95,24,6.89L24,6.89z M21.88,13.89c-0.01,0.66,0.01,1.32-0.04,1.98
		c-0.06,0.89-0.03,1.8-0.28,2.67c-0.3,1.06-0.87,1.92-1.85,2.5c-0.61,0.36-1.27,0.54-1.96,0.65c-0.59,0.1-1.19,0.07-1.78,0.09
		c-2.6,0.1-5.21,0.04-7.82,0.03c-0.98,0-1.97-0.04-2.93-0.36c-1.05-0.35-1.85-1-2.37-1.97c-0.3-0.56-0.45-1.18-0.53-1.82
		c-0.07-0.59-0.08-1.19-0.09-1.78C2.2,14.5,2.2,13.11,2.2,11.73c0-1-0.02-2-0.01-3c0.01-0.7,0.03-1.41,0.1-2.11
		c0.09-0.91,0.29-1.79,0.83-2.56c0.61-0.86,1.44-1.37,2.46-1.6c0.69-0.15,1.37-0.23,2.14-0.23C7.95,2.2,8.26,2.31,8.54,2.12
		C8.58,2.13,8.75,2.2,8.86,2.2c1.61-0.01,3.22-0.02,4.83-0.01c0.55,0,1.11-0.02,1.66,0.02c0.46,0.04,0.92,0.01,1.37,0.04
		c1.04,0.06,2.06,0.18,2.98,0.71c0.82,0.48,1.4,1.17,1.72,2.07c0.19,0.55,0.28,1.11,0.33,1.69c0.07,0.84,0.11,1.68,0.12,2.53
		C21.89,10.8,21.91,12.35,21.88,13.89L21.88,13.89z"/>
	<path class="st0" d="M16.24,7.5c-1.32-1.24-2.94-1.77-4.69-1.65c-1.52,0.11-2.9,0.73-3.97,1.88c-1.07,1.14-1.66,2.5-1.71,4.06
		c-0.1,3.67,2.79,6.3,5.93,6.39c3.64,0.1,6.41-2.81,6.39-6.78C18.15,10.24,17.54,8.72,16.24,7.5z M16.03,12.29
		c-0.08,0.84-0.36,1.6-0.92,2.26c-0.65,0.78-1.48,1.29-2.47,1.42c-1.26,0.17-2.4-0.15-3.35-1.07c-0.67-0.64-1.06-1.41-1.22-2.3
		c-0.13-0.71-0.03-1.41,0.24-2.08c0.39-0.95,1.05-1.66,1.97-2.11C11.13,8,12.02,7.9,12.93,8.12c0.73,0.18,1.39,0.54,1.93,1.07
		c0.26,0.26,0.48,0.56,0.66,0.89c-0.01,0.03,0.01,0.04,0.04,0.05C15.9,10.81,16.1,11.53,16.03,12.29L16.03,12.29z"/>
	<path class="st0" d="M18.5,4.17c-0.46-0.03-0.84,0.13-1.14,0.48c-0.22,0.26-0.43,0.54-0.34,0.88c-0.06,0.82,0.65,1.53,1.47,1.51
		c0.72-0.02,1.43-0.77,1.38-1.5C19.82,4.76,19.3,4.22,18.5,4.17z"/>
</g>
</svg>
