<svg width="24" height="24" viewBox="0 0 24 24" fill="none" xmlns="http://www.w3.org/2000/svg">
<g clip-path="url(#clip0_30_195)">
<path d="M5.0921 7.96457C3.57274 7.95597 2.05339 7.95441 0.534037 7.95128C0.48712 7.98177 0.40345 7.92862 0.374517 7.99974C0.371389 8.00678 0.368261 8.01459 0.366697 8.02476L0.365133 8.13418C0.397194 8.14121 0.420653 8.15528 0.407359 8.19436C0.410487 9.32613 0.413615 10.4587 0.417525 11.5904C0.417525 11.7061 0.423781 11.8226 0.426909 11.9383C0.426909 11.9453 0.426909 11.9531 0.426909 11.9601C0.423781 13.1372 0.417525 14.3143 0.418307 15.4922C0.418307 16.7959 0.423781 18.1004 0.426909 19.4042C0.426909 19.4112 0.426909 19.4174 0.426909 19.4245C0.423781 20.7321 0.420653 22.039 0.416743 23.3466C0.416743 23.4623 0.410487 23.5787 0.407359 23.6944C0.382337 23.7694 0.331509 23.8398 0.368261 23.925C0.406577 24.0313 0.498067 23.9828 0.56297 23.9828C2.10109 23.9859 3.63843 23.9859 5.17655 23.9828C5.24302 23.9828 5.33529 24.0336 5.37673 23.9273C5.38142 23.8499 5.39003 23.7726 5.39003 23.6952C5.39003 18.5397 5.39003 13.3842 5.39003 8.22875C5.39003 8.16075 5.38299 8.09276 5.37986 8.02476C5.30636 7.90048 5.18672 7.96614 5.0921 7.96535V7.96457Z" fill="white"/>
<path d="M5.79195 2.66293L5.76458 2.60431C5.76223 2.59415 5.75832 2.58399 5.75129 2.57617C5.70906 2.36357 5.66683 2.1502 5.62383 1.9376C5.43225 1.51006 5.2 1.11222 4.85281 0.787074C4.41022 0.372041 3.87536 0.164916 3.29201 0.0586171C3.28263 0.050801 3.27168 0.046893 3.26074 0.0437665C3.2404 0.0343873 3.22007 0.025008 3.19974 0.0156287C3.18879 0.0109391 3.17785 0.00546784 3.1669 0.000778198C2.97219 0.0015598 2.7767 0.00234141 2.58199 0.00390462C2.57261 0.0109391 2.56322 0.0179735 2.55384 0.0257896C2.54055 0.0359505 2.52647 0.046893 2.51318 0.0570538C1.87353 0.0992606 1.36839 0.433006 0.885132 0.811304C0.860891 0.835534 0.835869 0.860545 0.811628 0.884775C0.494151 1.28887 0.206389 1.70937 0.10317 2.22601C0.0844024 2.32059 0.071891 2.41672 0.0562518 2.5113C0.0453043 2.52537 0.0351388 2.53944 0.0241913 2.5535C0.0171536 2.5621 0.0108979 2.57148 0.00386027 2.58008C0.00307831 2.7747 0.00151438 2.9701 0.000732422 3.16472C0.00620616 3.17644 0.0116799 3.18739 0.0163717 3.19911C0.0257552 3.22021 0.0359207 3.24132 0.0453043 3.26164C0.0499961 3.27102 0.0539059 3.2804 0.0585977 3.28978C0.0648534 3.36403 0.0711091 3.43828 0.0773648 3.51253C0.0773648 3.51253 0.0789287 3.51253 0.0797107 3.5141C0.0797107 3.5141 0.0781467 3.5141 0.0781467 3.51488C0.178238 4.05888 0.494151 4.49032 0.813974 4.91943C0.837433 4.94366 0.860891 4.9671 0.885132 4.99133C1.10956 5.13124 1.29175 5.33524 1.53964 5.44076C1.55371 5.44701 1.56779 5.45404 1.58264 5.45952C1.58264 5.47437 1.58421 5.48844 1.5889 5.5025C1.60845 5.50798 1.62721 5.51345 1.64676 5.51892C1.66553 5.51345 1.6843 5.5111 1.70307 5.51032C1.71636 5.52126 1.73122 5.52908 1.74529 5.53846C1.9705 5.69165 2.24027 5.71354 2.49519 5.77997C2.50458 5.78232 2.51474 5.78466 2.52413 5.78701C2.54446 5.79248 2.56479 5.79873 2.58512 5.8042L2.57886 5.7831C2.77435 5.7831 2.96984 5.7831 3.16534 5.7831C3.40227 5.82296 3.60323 5.70728 3.81515 5.63538L3.80811 5.61349C3.82297 5.61037 3.83704 5.60568 3.85112 5.60255C4.20926 5.51423 4.51109 5.33055 4.76367 5.06402C4.77305 5.05464 4.78243 5.04526 4.79104 5.03589C4.85438 4.97336 4.91771 4.91005 4.98105 4.84752C5.0006 4.83501 5.01859 4.82094 5.03579 4.80609C5.2133 4.66306 5.29149 4.4403 5.44006 4.27382C5.44554 4.22927 5.43616 4.17768 5.49089 4.15345C5.54954 3.96743 5.60819 3.78141 5.66762 3.59539C5.66996 3.58835 5.67231 3.58132 5.67387 3.57428C5.69889 3.4586 5.72392 3.34214 5.74894 3.22647C5.75754 3.21709 5.76223 3.20536 5.76458 3.19286C5.77318 3.17488 5.78178 3.1569 5.79038 3.13815C5.79586 3.1272 5.80055 3.11704 5.80602 3.1061C5.80602 2.96932 5.80602 2.83332 5.80681 2.69654C5.80133 2.68481 5.79586 2.67387 5.79117 2.66215L5.79195 2.66293Z" fill="white"/>
<path d="M23.9414 14.3323C23.9437 14.2362 23.9461 14.14 23.9492 14.0439C23.9429 14.0048 23.9367 13.9657 23.9312 13.9267C23.9312 13.9212 23.9328 13.9157 23.9328 13.9102C23.9508 13.7571 23.9523 13.6054 23.8905 13.4593L23.871 13.3436V13.2803L23.8905 13.2865C23.8163 12.2783 23.6004 11.3028 23.2196 10.3657C23.1672 10.2977 23.1156 10.2289 23.1156 10.1367C22.8748 9.74038 22.612 9.35974 22.3008 9.01427C21.7886 8.5414 21.2037 8.18811 20.5469 7.95363C20.5 7.9591 20.4499 7.97708 20.4249 7.91533C20.2317 7.86765 20.0386 7.81997 19.8455 7.77308C19.7172 7.82623 19.6163 7.70273 19.4936 7.71758C19.3129 7.73712 19.1464 7.62145 18.9634 7.65896L18.9697 7.6785H18.8492C18.8086 7.65974 18.746 7.6871 18.728 7.62066C18.6514 7.61441 18.5755 7.60738 18.4989 7.60112C18.4489 7.60659 18.3988 7.61207 18.3488 7.61754L18.323 7.62066C18.1267 7.61363 17.9304 7.60738 17.7342 7.60034L17.7404 7.61754C17.7271 7.61676 17.7138 7.61676 17.7005 7.61597C17.3956 7.59878 17.1 7.67069 16.8013 7.71758C16.7622 7.71758 16.7231 7.71758 16.684 7.71836C16.5284 7.75744 16.372 7.79574 16.2164 7.83482C16.1491 7.88641 16.0764 7.92236 15.9904 7.92705C15.8316 7.99349 15.6729 8.05993 15.5142 8.12714C15.4594 8.15137 15.4047 8.17639 15.35 8.20062C14.9277 8.47809 14.4788 8.72038 14.141 9.10962C14.134 9.11822 14.1262 9.12526 14.1191 9.13385L14.1137 9.13932C14.1019 9.1487 14.0902 9.15886 14.0785 9.16824C13.8822 9.32769 13.7383 9.53404 13.5913 9.73569C13.528 9.82245 13.4771 9.91311 13.3505 9.89905C13.3544 9.87638 13.3591 9.85371 13.363 9.83105C13.2316 9.77946 13.2942 9.66535 13.2926 9.58171C13.2864 9.13698 13.2926 8.69146 13.2871 8.24673C13.2864 8.15685 13.3333 8.05055 13.2293 7.9802C13.2011 7.97473 13.1722 7.96457 13.144 7.96457C11.6536 7.96301 10.1624 7.96223 8.67199 7.96457C8.61256 7.96457 8.53045 7.92784 8.5023 8.02632C8.49918 8.09432 8.49292 8.16232 8.49292 8.23032C8.49292 13.3366 8.49292 18.4436 8.49292 23.5498C8.49292 23.6178 8.49918 23.6858 8.5023 23.7538C8.5023 23.8116 8.5023 23.8695 8.5023 23.9265C8.57346 24.0516 8.69154 23.9828 8.78303 23.9836C10.286 23.9922 11.7881 23.9938 13.291 23.9977C13.3466 23.9938 13.4029 23.9891 13.4584 23.9852C13.4646 23.9852 13.4701 23.9797 13.4756 23.9703C13.4701 23.975 13.4646 23.9805 13.4584 23.9852C13.4584 23.9726 13.4584 23.9601 13.4576 23.9484C13.4576 23.9476 13.4576 23.9461 13.4576 23.9453C13.4576 23.939 13.4576 23.9336 13.4576 23.9273C13.4607 21.5692 13.4639 19.2111 13.4678 16.8522C13.4678 16.599 13.474 16.3457 13.4772 16.0925C13.4787 15.8588 13.4803 15.6243 13.4818 15.3906C13.474 15.3125 13.4662 15.2351 13.4576 15.1569C13.4639 15.1374 13.4709 15.1178 13.4772 15.0983C13.5389 14.9678 13.5241 14.8263 13.5405 14.6887C13.5327 14.6692 13.5241 14.6496 13.5162 14.6301C13.5202 14.6106 13.5241 14.5918 13.528 14.5723C13.607 14.5324 13.5718 14.4558 13.5851 14.3948C13.6421 14.1354 13.6523 13.8626 13.8071 13.632C13.9002 13.2803 14.1184 12.9989 14.3217 12.7089C14.324 12.7058 14.3264 12.7019 14.3287 12.6988C14.342 12.6847 14.3483 12.6683 14.3475 12.6487C14.3678 12.6339 14.3874 12.6198 14.4077 12.605C14.4257 12.5917 14.4437 12.5784 14.4616 12.5659C14.5813 12.4799 14.7001 12.3932 14.8198 12.3064C14.8956 12.2603 14.9715 12.2142 15.0465 12.1673C15.3312 12.0907 15.615 12.0133 15.8997 11.9367L15.9239 11.9304L15.9826 11.95C16.0021 11.9515 16.0217 11.9523 16.0412 11.9539C16.2953 11.9492 16.5518 11.8992 16.8021 11.9891H16.8638L16.8576 12.0086C16.9897 11.9429 17.0937 12.0492 17.2118 12.0672C17.2251 12.0625 17.2384 12.0586 17.2525 12.0539C17.2587 12.0516 17.2642 12.05 17.2705 12.0477C17.3095 12.0516 17.3479 12.0547 17.387 12.0586C17.3948 12.0625 17.4026 12.0657 17.4096 12.0696C17.6646 12.1876 17.9109 12.3197 18.1298 12.4979C18.1369 12.5034 18.1439 12.5088 18.1509 12.5151C18.3582 12.7691 18.5701 13.02 18.6631 13.3444C18.7226 13.5781 18.782 13.8125 18.8414 14.0462C18.9306 14.312 18.9274 14.591 18.9611 14.8654C18.9657 14.9045 18.9712 14.9435 18.9759 14.9826L18.9689 15.3289C19.0799 15.6181 19.0056 15.9166 19.015 16.2113C19.0181 17.9746 19.0213 19.7379 19.0252 21.5012C19.0267 22.3094 19.0306 23.1184 19.0338 23.9265C20.6681 23.925 22.3024 23.9226 23.9367 23.9211C23.9414 23.9234 23.9468 23.9234 23.9515 23.9242C23.9648 23.9265 23.9789 23.9273 23.9922 23.9226C23.9938 22.3641 23.9977 20.8064 23.9977 19.2478C23.9977 17.9043 23.9914 16.5607 23.9883 15.2163C23.9813 14.9224 24.0446 14.6246 23.9422 14.3354L23.9414 14.3323ZM13.2316 14.6285C13.2316 14.6223 13.2316 14.616 13.2316 14.6098C13.2332 14.6098 13.2347 14.6113 13.2355 14.6121C13.234 14.6176 13.2332 14.6231 13.2316 14.6293V14.6285Z" fill="white"/>
</g>
<defs>
<clipPath id="clip0_30_195">
<rect width="24" height="24" fill="white"/>
</clipPath>
</defs>
</svg>
