<?xml version="1.0" encoding="utf-8"?>
<!-- Generator: Adobe Illustrator 27.4.0, SVG Export Plug-In . SVG Version: 6.00 Build 0)  -->
<svg version="1.1" id="Calque_1" xmlns="http://www.w3.org/2000/svg" xmlns:xlink="http://www.w3.org/1999/xlink" x="0px" y="0px"
	 width="24px" height="24px" viewBox="0 0 24 24" style="enable-background:new 0 0 24 24;" xml:space="preserve">
<style type="text/css">
	.st0{fill:#FFFFFF;}
</style>
<g>
	<path class="st0" d="M5.1,8c-1.5,0-3,0-4.6,0c0,0-0.1,0-0.2,0c0,0,0,0,0,0l0,0.1c0,0,0.1,0,0,0.1c0,1.1,0,2.3,0,3.4
		c0,0.1,0,0.2,0,0.3c0,0,0,0,0,0c0,1.2,0,2.4,0,3.5c0,1.3,0,2.6,0,3.9c0,0,0,0,0,0c0,1.3,0,2.6,0,3.9c0,0.1,0,0.2,0,0.3
		c0,0.1-0.1,0.1,0,0.2C0.4,24,0.5,24,0.6,24c1.5,0,3.1,0,4.6,0c0.1,0,0.2,0.1,0.2-0.1c0-0.1,0-0.2,0-0.2c0-5.2,0-10.3,0-15.5
		c0-0.1,0-0.1,0-0.2C5.3,7.9,5.2,8,5.1,8L5.1,8z"/>
	<path class="st0" d="M5.8,2.7L5.8,2.7C5.8,2.6,5.8,2.6,5.8,2.7C5.7,2.4,5.7,2.2,5.6,1.9C5.4,1.5,5.2,1.1,4.9,0.8
		c-0.4-0.4-1-0.6-1.6-0.7c0,0,0,0,0,0c0,0,0,0-0.1,0c0,0,0,0,0,0C3,0,2.8,0,2.6,0c0,0,0,0,0,0c0,0,0,0,0,0c-0.6,0-1.1,0.4-1.6,0.8
		c0,0,0,0-0.1,0.1C0.5,1.3,0.2,1.7,0.1,2.2c0,0.1,0,0.2,0,0.3c0,0,0,0,0,0c0,0,0,0,0,0C0,2.8,0,3,0,3.2c0,0,0,0,0,0c0,0,0,0,0,0.1
		c0,0,0,0,0,0c0,0.1,0,0.1,0,0.2c0,0,0,0,0,0c0,0,0,0,0,0c0.1,0.5,0.4,1,0.7,1.4c0,0,0,0,0.1,0.1c0.2,0.1,0.4,0.3,0.7,0.4
		c0,0,0,0,0,0c0,0,0,0,0,0c0,0,0,0,0.1,0c0,0,0,0,0.1,0c0,0,0,0,0,0C2,5.7,2.2,5.7,2.5,5.8c0,0,0,0,0,0c0,0,0,0,0.1,0l0,0
		c0.2,0,0.4,0,0.6,0c0.2,0,0.4-0.1,0.6-0.1l0,0c0,0,0,0,0,0c0.4-0.1,0.7-0.3,0.9-0.5c0,0,0,0,0,0C4.9,5,4.9,4.9,5,4.8c0,0,0,0,0.1,0
		c0.2-0.1,0.3-0.4,0.4-0.5c0,0,0-0.1,0.1-0.1C5.5,4,5.6,3.8,5.7,3.6c0,0,0,0,0,0c0-0.1,0.1-0.2,0.1-0.3c0,0,0,0,0,0c0,0,0,0,0-0.1
		c0,0,0,0,0,0C5.8,3,5.8,2.8,5.8,2.7C5.8,2.7,5.8,2.7,5.8,2.7L5.8,2.7z"/>
	<path class="st0" d="M23.9,14.3c0-0.1,0-0.2,0-0.3c0,0,0-0.1,0-0.1c0,0,0,0,0,0c0-0.2,0-0.3,0-0.5l0-0.1v-0.1l0,0
		c-0.1-1-0.3-2-0.7-2.9c-0.1-0.1-0.1-0.1-0.1-0.2c-0.2-0.4-0.5-0.8-0.8-1.1c-0.5-0.5-1.1-0.8-1.8-1.1c0,0-0.1,0-0.1,0
		c-0.2,0-0.4-0.1-0.6-0.1c-0.1,0.1-0.2-0.1-0.4-0.1c-0.2,0-0.3-0.1-0.5-0.1l0,0h-0.1c0,0-0.1,0-0.1-0.1c-0.1,0-0.2,0-0.2,0
		c0,0-0.1,0-0.2,0l0,0c-0.2,0-0.4,0-0.6,0l0,0c0,0,0,0,0,0c-0.3,0-0.6,0.1-0.9,0.1c0,0-0.1,0-0.1,0c-0.2,0-0.3,0.1-0.5,0.1
		c-0.1,0.1-0.1,0.1-0.2,0.1c-0.2,0.1-0.3,0.1-0.5,0.2c-0.1,0-0.1,0-0.2,0.1c-0.4,0.3-0.9,0.5-1.2,0.9c0,0,0,0,0,0l0,0c0,0,0,0,0,0
		c-0.2,0.2-0.3,0.4-0.5,0.6c-0.1,0.1-0.1,0.2-0.2,0.2c0,0,0,0,0-0.1c-0.1-0.1-0.1-0.2-0.1-0.2c0-0.4,0-0.9,0-1.3
		c0-0.1,0-0.2-0.1-0.3c0,0-0.1,0-0.1,0c-1.5,0-3,0-4.5,0C8.6,8,8.5,7.9,8.5,8c0,0.1,0,0.1,0,0.2c0,5.1,0,10.2,0,15.3
		c0,0.1,0,0.1,0,0.2c0,0.1,0,0.1,0,0.2C8.6,24.1,8.7,24,8.8,24c1.5,0,3,0,4.5,0c0.1,0,0.1,0,0.2,0c0,0,0,0,0,0c0,0,0,0,0,0
		c0,0,0,0,0,0c0,0,0,0,0,0c0,0,0,0,0,0c0-2.4,0-4.7,0-7.1c0-0.3,0-0.5,0-0.8c0-0.2,0-0.5,0-0.7c0-0.1,0-0.2,0-0.2c0,0,0,0,0-0.1
		c0.1-0.1,0-0.3,0.1-0.4c0,0,0,0,0-0.1c0,0,0,0,0-0.1c0.1,0,0-0.1,0.1-0.2c0.1-0.3,0.1-0.5,0.2-0.8c0.1-0.4,0.3-0.6,0.5-0.9
		c0,0,0,0,0,0c0,0,0,0,0-0.1c0,0,0,0,0.1,0c0,0,0,0,0.1,0c0.1-0.1,0.2-0.2,0.4-0.3c0.1,0,0.2-0.1,0.2-0.1c0.3-0.1,0.6-0.2,0.9-0.2
		l0,0l0.1,0c0,0,0,0,0.1,0c0.3,0,0.5-0.1,0.8,0h0.1l0,0c0.1-0.1,0.2,0,0.4,0.1c0,0,0,0,0,0c0,0,0,0,0,0c0,0,0.1,0,0.1,0c0,0,0,0,0,0
		c0.3,0.1,0.5,0.3,0.7,0.4c0,0,0,0,0,0c0.2,0.3,0.4,0.5,0.5,0.8c0.1,0.2,0.1,0.5,0.2,0.7c0.1,0.3,0.1,0.5,0.1,0.8c0,0,0,0.1,0,0.1
		l0,0.3c0.1,0.3,0,0.6,0,0.9c0,1.8,0,3.5,0,5.3c0,0.8,0,1.6,0,2.4c1.6,0,3.3,0,4.9,0c0,0,0,0,0,0c0,0,0,0,0,0c0-1.6,0-3.1,0-4.7
		c0-1.3,0-2.7,0-4C24,14.9,24,14.6,23.9,14.3L23.9,14.3z M13.2,14.6C13.2,14.6,13.2,14.6,13.2,14.6C13.2,14.6,13.2,14.6,13.2,14.6
		C13.2,14.6,13.2,14.6,13.2,14.6L13.2,14.6z"/>
</g>
</svg>
