<?xml version="1.0" encoding="utf-8"?>
<!-- Generator: Adobe Illustrator 27.3.0, SVG Export Plug-In . SVG Version: 6.00 Build 0)  -->
<svg version="1.1" id="Calque_1" xmlns="http://www.w3.org/2000/svg" xmlns:xlink="http://www.w3.org/1999/xlink" x="0px" y="0px"
	 width="512px" height="512px" viewBox="0 0 512 512" style="enable-background:new 0 0 512 512;" xml:space="preserve">
<style type="text/css">
	.st0{fill:#FFFFFF;}
</style>
<g id="Layer_2">
	<g id="_62.spotify">
		<path id="icon" class="st0" d="M256,0C114.62,0,0,114.62,0,256s114.62,256,256,256s256-114.62,256-256S397.38,0,256,0z
			 M348.48,350.63c-4.22,7.22-13.49,9.65-20.71,5.44c-39.83-23.27-85.82-27-117.41-26.18c-20.52,0.53-40.93,3.22-60.89,8.03
			c-8.24,1.46-16.11-4.04-17.57-12.28c-1.27-7.17,2.74-14.22,9.54-16.81c21.99-5.46,44.5-8.55,67.14-9.19
			c21.67-0.8,43.37,0.77,64.7,4.68c24.56,4.45,48.17,13.06,69.82,25.48c7.22,4.2,9.67,13.46,5.47,20.68
			C348.54,350.54,348.51,350.58,348.48,350.63L348.48,350.63z M376.64,292.13c-3.21,5.52-9.12,8.91-15.51,8.9
			c-3.18,0-6.31-0.85-9.05-2.47c-47.16-27.55-101.61-32-139.05-30.84c-24.31,0.63-48.48,3.82-72.12,9.51
			c-9.65,2.27-19.31-3.71-21.58-13.36c-2.15-9.15,3.11-18.4,12.07-21.23c26.05-6.45,52.71-10.05,79.53-10.76
			c25.68-0.97,51.39,0.89,76.65,5.56c29.06,5.27,57.01,15.48,82.62,30.2C378.73,272.64,381.6,283.59,376.64,292.13z M412.97,228.13
			c-3.94,6.76-11.17,10.91-19,10.91c-3.9,0.04-7.74-0.96-11.11-2.91c-112.12-65.51-257.54-26.56-258.91-26.18
			c-11.59,3.67-23.97-2.75-27.64-14.34c-3.67-11.59,2.75-23.97,14.34-27.64c0.55-0.17,1.1-0.33,1.66-0.46
			c31.9-7.93,64.57-12.4,97.43-13.32c31.49-1.17,63,1.11,93.99,6.81c35.64,6.4,69.92,18.85,101.35,36.83
			c10.53,6.05,14.17,19.49,8.12,30.02c-0.04,0.07-0.08,0.13-0.12,0.2L412.97,228.13z"/>
	</g>
</g>
</svg>
