<?xml version="1.0" encoding="utf-8"?>
<!-- Generator: Adobe Illustrator 27.4.0, SVG Export Plug-In . SVG Version: 6.00 Build 0)  -->
<svg version="1.1" id="Calque_1" xmlns="http://www.w3.org/2000/svg" xmlns:xlink="http://www.w3.org/1999/xlink" x="0px" y="0px"
	 width="24px" height="24px" viewBox="0 0 24 24" style="enable-background:new 0 0 24 24;" xml:space="preserve">
<style type="text/css">
	.st0{fill:#FFFFFF;}
</style>
<g id="Layer_2">
	<g id="_62.spotify">
		<path id="icon" class="st0" d="M12,0C5.4,0,0,5.4,0,12s5.4,12,12,12s12-5.4,12-12S18.6,0,12,0z M16.3,16.4c-0.2,0.3-0.6,0.5-1,0.3
			c-1.9-1.1-4-1.3-5.5-1.2c-1,0-1.9,0.2-2.9,0.4c-0.4,0.1-0.8-0.2-0.8-0.6c-0.1-0.3,0.1-0.7,0.4-0.8c1-0.3,2.1-0.4,3.1-0.4
			c1,0,2,0,3,0.2c1.2,0.2,2.3,0.6,3.3,1.2C16.4,15.7,16.5,16.1,16.3,16.4C16.3,16.4,16.3,16.4,16.3,16.4L16.3,16.4z M17.7,13.7
			c-0.2,0.3-0.4,0.4-0.7,0.4c-0.1,0-0.3,0-0.4-0.1c-2.2-1.3-4.8-1.5-6.5-1.4c-1.1,0-2.3,0.2-3.4,0.4c-0.5,0.1-0.9-0.2-1-0.6
			c-0.1-0.4,0.1-0.9,0.6-1c1.2-0.3,2.5-0.5,3.7-0.5c1.2,0,2.4,0,3.6,0.3c1.4,0.2,2.7,0.7,3.9,1.4C17.8,12.8,17.9,13.3,17.7,13.7z
			 M19.4,10.7c-0.2,0.3-0.5,0.5-0.9,0.5c-0.2,0-0.4,0-0.5-0.1C12.7,8,5.9,9.8,5.8,9.8C5.3,10,4.7,9.7,4.5,9.2C4.3,8.6,4.6,8,5.2,7.9
			c0,0,0.1,0,0.1,0c1.5-0.4,3-0.6,4.6-0.6c1.5-0.1,3,0.1,4.4,0.3c1.7,0.3,3.3,0.9,4.8,1.7C19.5,9.6,19.7,10.2,19.4,10.7
			C19.4,10.7,19.4,10.7,19.4,10.7L19.4,10.7z"/>
	</g>
</g>
</svg>
